<svg xmlns="http://www.w3.org/2000/svg" width="83.139" height="82.508" viewBox="0 0 83.139 82.508">
  <g id="Group_17" data-name="Group 17" transform="translate(-167 -4395.003)">
    <path id="Path_49" data-name="Path 49" d="M21.174,3.458A18.906,18.906,0,0,0,3.837,15.022a1.107,1.107,0,0,0,.707,1.5l.007,0,16.231,6.834.045.019q.039.016.078.03t.08.024q.04.01.082.017a1.148,1.148,0,0,0,.491-.024l.005,0,.024-.007.056-.019.023-.009.054-.024q.037-.017.073-.036h0l.023-.012.05-.031,0,0q.034-.022.066-.047t.061-.05l0,0,.017-.016.043-.042.016-.017.04-.045.014-.017.036-.049,0,0q.023-.033.043-.068t.036-.066l0-.007.01-.021.005-.014.016-.031.009-.024,0-.007q.009-.023.017-.047l.01-.033,0-.009q.011-.035.019-.071t.014-.069l0-.014c0-.016,0-.032.005-.049s0-.046,0-.069l0-.014c0-.008,0-.016,0-.024V4.566C22.369,3.952,21.2,3.456,21.174,3.458ZM20.146,5.719V20.677L6.357,14.871A16.662,16.662,0,0,1,20.146,5.719Z" transform="translate(163.25 4391.545)" fill="#ff2a2a"/>
    <path id="Path_50" data-name="Path 50" d="M23.912,7.018A1.111,1.111,0,0,0,22.8,8.129V24.241L8.119,18.058A1.1,1.1,0,0,0,7.428,18a1.111,1.111,0,0,0-.978.684,18.884,18.884,0,0,0,5.563,21.887V38.883a6.193,6.193,0,0,1,.116-1.179A16.592,16.592,0,0,1,8.162,20.488l14.355,6.045L20.4,32.584h2.355l2.268-6.48V9.3A16.638,16.638,0,0,1,40.513,24.452c.132-.008.264-.019.4-.019h1.834A18.912,18.912,0,0,0,23.912,7.018Zm17,18.527a5.39,5.39,0,0,0-5.557,5.186V33.7H18.312a5.2,5.2,0,0,0-5.187,5.187V79.636a5.2,5.2,0,0,0,5.187,5.187H81.294a5.2,5.2,0,0,0,5.187-5.187V38.883A5.2,5.2,0,0,0,81.294,33.7H64.252V30.731a5.39,5.39,0,0,0-5.557-5.186H40.911Zm0,2.223H58.695a3.137,3.137,0,0,1,3.334,2.963V33.7H60.7v-1.6a3.971,3.971,0,0,0-4.076-3.829H42.986A3.971,3.971,0,0,0,38.91,32.09v1.6H37.577V30.731a3.137,3.137,0,0,1,3.334-2.963Zm2.075,2.716H56.619a1.72,1.72,0,0,1,1.853,1.606v1.6H41.133v-1.6a1.72,1.72,0,0,1,1.853-1.606ZM18.312,35.918H81.294a2.934,2.934,0,0,1,2.965,2.965v8.67H55.36V46.218a1.112,1.112,0,0,0-1.111-1.111H45.357a1.112,1.112,0,0,0-1.111,1.111v1.334h-28.9v-8.67a2.934,2.934,0,0,1,2.965-2.965ZM46.468,47.33h6.669v5.927H46.468ZM15.347,49.775h28.9v1.037h-28.9Zm40.013,0H84.1v1.037H55.36Zm-40.013,3.26h28.9v1.334a1.112,1.112,0,0,0,1.111,1.111h8.892a1.112,1.112,0,0,0,1.111-1.111V53.035h28.9v26.6A2.934,2.934,0,0,1,81.294,82.6H18.312a2.934,2.934,0,0,1-2.965-2.965v-26.6Z" transform="translate(163.657 4392.688)" fill="#707070"/>
  </g>
</svg>
