<svg id="Group_14" data-name="Group 14" xmlns="http://www.w3.org/2000/svg" xmlns:xlink="http://www.w3.org/1999/xlink" width="241.5" height="89.32" viewBox="0 0 241.5 89.32">
  <defs>
    <clipPath id="clip-path">
      <rect id="Rectangle_9" data-name="Rectangle 9" width="241.5" height="89.32" fill="none"/>
    </clipPath>
  </defs>
  <g id="Group_13" data-name="Group 13" clip-path="url(#clip-path)">
    <path id="Path_19" data-name="Path 19" d="M123.794,34.292c.425,3.146,5.186,7.4,6.5,7.312.85-.085,1.19-4.124,1.19-7.312,0-1.828.085-3.231-.85-3.571-1.531,3.1-5.527,3.7-6.845,3.571m.3-1.361c3.444,0,6.59-2.764,6.59-5.186a2.018,2.018,0,0,0-1.913-2.21,1.513,1.513,0,0,1,.34,1.062c0,1.828-2.764,3.869-5.782,3.869a1.283,1.283,0,0,0-1.446,1.148c0,.893.893,1.318,2.211,1.318m-.722-3.784a1.416,1.416,0,0,1-1.488-.723c-.3-.6-.212-1.573-.765-2a5.509,5.509,0,0,0,1.615.17c1.488,0,2.934-1.019,4.039-1.019a.846.846,0,0,1,.935.935c0,1.445-2.976,2.636-4.336,2.636" transform="translate(-45.697 -9.634)" fill="#2c41ca"/>
    <path id="Path_20" data-name="Path 20" d="M3.924,68.535c1.105,0,.893-6.887,2.721-6.887.425,0,.552.425.552.978,0,1.573-.765,3.869-.765,5.1,0,.638.17.85.468.85.808,0,2.168-7.609,3.529-7.609.425,0,.638.425.638.85,0,1.573-2.041,6.164-2.041,7.44,0,.212.085.382.212.382.85,0,2.508-3.571,3.018-5.356.3-.935.681-1.445,1.063-1.445.34,0,.638.382.638,1.148,0,1.786-1.658,5.994-3.1,8.843-1.1,2.125-2.848,5.271-2.848,7.057A3.5,3.5,0,0,0,9.45,82.819c-2.125-.127-2.976-.339-3.784-2-3.529,7.057,6.547,6.377,3.1,12.626-.638-1.1-5.612-2.3-5.612-8.842,0-5.654,4.974-8.971,4.974-11.351a1.562,1.562,0,0,0-.6-1.233c-1.105-.935-1.148-1.7-2-1.7-.638,0-1.4,1.445-.595,2.763.255.425.51.68.51,1.105,0,.935-1.445,3.4-2.466,3.4S1.161,75.04,1.161,70.916c0-3.656.807-7.312,1.87-7.312.3,0,.383.212.383.468,0,.425-.128,1.275-.128,2.763-.042,1.573.3,1.7.638,1.7" transform="translate(-0.438 -23.003)" fill="#2c41ca"/>
    <path id="Path_21" data-name="Path 21" d="M18.008,78.966c1.4,0,2.551-1.02,2.551-3.316v-3.4a5.657,5.657,0,0,1,.978-3.784,6.839,6.839,0,0,0-.085,1.318c0,2.849,1.573,4.8,1.573,7.568,0,1.02-.3,1.573-1.105,1.573-.765,0-.681-.681-.85-.681-.128,0-.341.425-.341.893A1.8,1.8,0,0,0,22.6,80.922a2.3,2.3,0,0,0,2.168-2.338c0-2.976-2.338-6.292-2.338-9.481a7.414,7.414,0,0,1,.681-3.061c0,6.59,5.612,11.393,5.612,14.157a1.117,1.117,0,0,1-1.148,1.148,1.1,1.1,0,0,1-1.148-1.062c0-.213-.042-.3-.128-.3a1.7,1.7,0,0,0-.808,1.531,2.474,2.474,0,0,0,2.551,2.423,2.951,2.951,0,0,0,2.934-3.018c0-3.486-6.8-8.758-6.8-14.412a7.873,7.873,0,0,1,.851-3.7c-4.379,2.806-5.739,6.546-5.739,9.863,0,2.848-.085,4.294-1.573,4.294-.765,0-.978-.681-1.233-.681-.212,0-.3.6-.3.765a1.887,1.887,0,0,0,1.828,1.913" transform="translate(-6.105 -23.699)" fill="#2c41ca"/>
    <path id="Path_22" data-name="Path 22" d="M106.912,32.2c1.446,0,2.551-.68,2.551-1.063,0-.128-.213-.213-.638-.213a20.131,20.131,0,0,1-2.934-.3c-1.4-.212-2.465-.765-2.848-.765a.194.194,0,0,0-.212.17c.042.85,1.658,2.168,4.081,2.168M99.685,28c.426-.3,2.3.17,4.719-1.021a1.675,1.675,0,0,1,.85-.212c1.148,0,.851,1.318,1.914,1.318.807,0,1.871-.68,2.508-.68.977,0,2.423,3.1,2.423,4.591,0,1.7-2.551,2.721-5.569,2.721a7.048,7.048,0,0,1-7.057-6.335A.534.534,0,0,1,99.685,28" transform="translate(-37.531 -10.098)" fill="#2c41ca"/>
    <path id="Path_23" data-name="Path 23" d="M18.551,108.106c-1.105.255-2.848,2-2.848,4.719,0,3.231,3.486,8.248,9.225,8.248,4.846,0,6.037-3.358,6.037-5.611,0-5.017-3.061-8.545-7.1-8.545a4.019,4.019,0,0,0-4.166,3.953,5.489,5.489,0,0,0,5.612,5.485,2.767,2.767,0,0,0,2.934-2.848,3.657,3.657,0,0,0-3.359-3.529A.959.959,0,0,0,23.865,111c0,.807,1.105,1.573,2.466,1.573a2.2,2.2,0,0,0,.722-.128.569.569,0,0,1,.085.382c0,.766-.723,1.234-1.871,1.234a3.255,3.255,0,0,1-3.316-3.274c0-1.19,1.02-2.041,2.508-2.041,2.934,0,4.719,2.636,4.719,5.229,0,2.338-1.275,3.7-3.954,3.7-5.272.043-7.822-4.719-6.675-9.565" transform="translate(-5.925 -40.34)" fill="#2c41ca"/>
    <path id="Path_24" data-name="Path 24" d="M60.354,125.9a1.318,1.318,0,1,0,1.318-1.318,1.325,1.325,0,0,0-1.318,1.318m2.551,6.632a16.7,16.7,0,0,0,2-.127c.51,0,.51.3.51.51,0,.722-1.615,1.615-4.506,1.615a2.906,2.906,0,0,1-3.019-1.913,13.034,13.034,0,0,1-6.674,2.041c-6.8,0-8.5-2.934-10.629-3.911-1.615-.722-4.123.681-7.609-3.188a9.85,9.85,0,0,0,1.573.128c3.061,0,4.676-1.488,4.676-3.869a6.96,6.96,0,0,0-.085-.935,6.65,6.65,0,0,1,3.571,4.761c.085.34,1.446.638,2.3.638a2.685,2.685,0,0,0,2.934-2.466c4-.34,6.675-2.678,7.227-5.654a7.793,7.793,0,0,1,3.444,2.423,5.674,5.674,0,0,1,2-.3,13.22,13.22,0,0,1,3.7.638c.085-.425.128-.978.808-.978.978,0,.723,1.1,1.063,1.743.17.34.978.51.978,1.19a.842.842,0,0,1-.85.851,1,1,0,0,1-.382-.085c-.681.212-.681,5.016-3.486,5.016-2.041,0-3.954-1.7-4.761-3.826a1.372,1.372,0,0,0-1.191-1.021c-.51,0-.807.085-1.445.808a11.5,11.5,0,0,1-8.46,3.656c-1.148,0-2.041-.085-2.253-.085-.128,0-.128.042-.128.085,0,.213,1.148,1.148,3.571,1.148,5.825,0,7.27-3.274,8.205-3.274a.8.8,0,0,1,.766.51,6.518,6.518,0,0,0,6.164,3.868" transform="translate(-12.442 -45.337)" fill="#2c41ca"/>
    <path id="Path_25" data-name="Path 25" d="M108.412,104.01c-.681,0-4.549,5.144-7.015,5.144-.595,0-1.105-1.148-1.105-2,0-.468.3-.808,1.361-1.021,5.7-1.275,4.421-5.569,9.311-5.569a5.56,5.56,0,0,1,5.654,5.952c0,4.379-6.249,9.821-7.142,9.821-.765,0-1.573-1.105-1.573-1.828,0-.213.085-.511.765-.808,3.189-1.275,5.017-4.166,5.017-5.654a.6.6,0,0,0-.6-.68c-.553,0-2.976,5.484-5.654,5.484-1.871,0-3.741-1.7-3.741-2.466,0-1.318,5.356-3.784,5.356-5.655-.042-.679-.34-.722-.638-.722m3.614-2.041c-.468,0-.978.382-.978,1.275a2.158,2.158,0,0,0,1.191,1.828,2.056,2.056,0,0,0,.978.256c.978,0,1.743-.256,1.743-1.063-.042-1.064-1.531-2.3-2.934-2.3" transform="translate(-37.84 -37.944)" fill="#2c41ca"/>
    <path id="Path_26" data-name="Path 26" d="M12.2,35.253a1.318,1.318,0,1,0,1.318-1.318A1.353,1.353,0,0,0,12.2,35.253m-1.7-2.976a1.318,1.318,0,1,0,1.318-1.318A1.325,1.325,0,0,0,10.5,32.277m-1.19,9.1a3.183,3.183,0,0,0-2.339,2.806,1.956,1.956,0,0,0,2.084,1.955,1.993,1.993,0,0,0,1.275-.34,3.826,3.826,0,0,1-1.275-2.891,4.343,4.343,0,0,1,.255-1.53m-8.12.468a2.047,2.047,0,0,0-.043.51c0,1.573.808,2.424,1.914,2.424A3.629,3.629,0,0,0,5.7,43.2a5.6,5.6,0,0,1-1.191.085,4.153,4.153,0,0,1-3.316-1.445M0,44.776c0,2.508.765,3.7,2.126,3.7,1.062,0,2.465-.765,4.166-2.211a14.78,14.78,0,0,1-3.188.51c-1.148,0-2.084-.468-3.1-2M8.588,31.512a6.23,6.23,0,0,0,.3-1.913c0-1.573-.723-4-2.976-4A2.2,2.2,0,0,0,3.7,27.856c0,2.593,2.636,3.656,4.889,3.656M5.782,39.887a2.736,2.736,0,0,1-2.3-2.593c0-.681.511-1.488.851-1.488.128,0,.212.085.212.34A3.855,3.855,0,0,0,6.8,39.164c.085.085.169.085.169.17.043.213-.595.553-1.19.553m3.061-4.081c.212.3.85.68.85.935,0,.468-.255,1.063-.808,1.063C7.737,37.8,6.8,36.061,6.8,35.041c0-.638.382-.68.85-.68a1,1,0,0,1,.51.128c.3.17.3.85.681,1.318m-7.78,4.124a.846.846,0,0,0-.085.383.722.722,0,0,0,.637.638,5.212,5.212,0,0,0,.553-.085c.808,0,1.7.553,2.976.553A6.079,6.079,0,0,0,7.95,40.61a6.984,6.984,0,0,0,3.316-4.634c0-.638-.51-.552-.935-1.148s-.255-1.105-.51-1.361c-.17-.17-.638-.17-1.233-.212a3.846,3.846,0,0,0-.722-.043,6.566,6.566,0,0,0-3.826,1.063c-2.934,1.871-2.551,4.889-2.976,5.654m11.011-1.318a6.359,6.359,0,0,0-1.488,3.826c0,1.786,1.105,3.274,2.806,3.274,1.615,0,2.381-1.4,2.381-2.806-.042-2.253-2.041-3.784-3.7-4.293m-7.1-6.377a4.081,4.081,0,0,1-2.168.723A2.48,2.48,0,0,1,.255,30.406,2.818,2.818,0,0,1,2,27.771a2.584,2.584,0,0,0-.043.552,3.865,3.865,0,0,0,3.019,3.911" transform="translate(0 -9.66)" fill="#2c41ca"/>
    <path id="Path_27" data-name="Path 27" d="M94.444,49.016a1.4,1.4,0,1,0,1.4-1.4,1.415,1.415,0,0,0-1.4,1.4m.085,4.166A1.573,1.573,0,1,0,96.1,51.61a1.626,1.626,0,0,0-1.573,1.573m-4.761,2.848a2.3,2.3,0,1,0,2.3-2.3,2.286,2.286,0,0,0-2.3,2.3M91,51.354a1.318,1.318,0,1,0,1.318-1.318A1.325,1.325,0,0,0,91,51.354M86.664,53.99a1.318,1.318,0,1,0,1.318-1.318,1.325,1.325,0,0,0-1.318,1.318m3.4-7.738a2.126,2.126,0,1,0,2.126-2.126,2.132,2.132,0,0,0-2.126,2.126m2.466-4.081A1.275,1.275,0,1,0,93.806,40.9a1.279,1.279,0,0,0-1.275,1.275m-5.995,3.188a1.255,1.255,0,1,0,1.234-1.275,1.271,1.271,0,0,0-1.234,1.275m-.169,4.294a2.019,2.019,0,1,0,2-2.041,2.006,2.006,0,0,0-2,2.041M82.2,51.779a1.871,1.871,0,1,0,1.87-1.871,1.859,1.859,0,0,0-1.87,1.871M83.348,47.1a1.318,1.318,0,1,0,1.318-1.318A1.325,1.325,0,0,0,83.348,47.1m11.606,10.2a1.262,1.262,0,0,1,1.232-1.233,1.243,1.243,0,0,1,1.275,1.233,1.227,1.227,0,0,1-1.275,1.275,1.241,1.241,0,0,1-1.232-1.275" transform="translate(-31.014 -15.43)" fill="#2c41ca"/>
    <path id="Path_28" data-name="Path 28" d="M98.036,124.522c.17,0,.383.085.383.68a2.95,2.95,0,0,1-1.531,2.466,6.623,6.623,0,0,1-3.614,1.063,8.162,8.162,0,0,0,.468-2.423,5.214,5.214,0,0,0-.085-.766h.425a7.182,7.182,0,0,0,3.954-1.02m.255-3.274a1.255,1.255,0,0,0,.34-.978v-.765c0-.978-1.445-1.531-3.444-1.531-2.423,0-3.7,1.105-3.7,1.573v1.531c0,.638,1.445,1.275,3.274,1.275a5.552,5.552,0,0,0,3.528-1.105m1.7.383a9.681,9.681,0,0,1-6.25,2.168,8.254,8.254,0,0,1-2.848-.552c-.341,0-.681.34-1.063.765A7.342,7.342,0,0,0,88,128.561a2.7,2.7,0,0,0,2.934,2.636c6.206,0,10.84-3.869,10.84-7.015.043-1.828-1.02-2.551-1.785-2.551" transform="translate(-33.204 -44.512)" fill="#2c41ca"/>
    <path id="Path_29" data-name="Path 29" d="M98.245,73.161c0,.808.256,1.785,1.106,1.785.681,0,1.275-1.063,1.275-2.211,0-1.318-.212-2.338-.212-2.891,0-.212.085-.34.212-.34.51.043.978,1.4,1.488,1.4.6,0,1.488-1.105,1.871-1.105.085,0,.128.128.128.17,0,.51-.765,1.615-.765,2.041,0,.383,1.913.425,1.913.765,0,.51-2,.51-2.976.935-.935.383-1.488.893-1.488,1.573s.681.808,1.616.808c2.211,0,3.784-1.19,4.251-1.19a.182.182,0,0,1,.169.17c0,.34-1.147,1.445-1.147,1.913,0,.553,2.04,1.233,2.04,1.573-.042.085-.169.128-.382.128-.382,0-.935-.085-1.361-.085-.255,0-.51.042-.6.169-.212.255.085,2.041-.382,2.041-.425,0-1.573-3.911-4.124-3.911-.382,0-.638.3-.638.808,0,1.318,1.275,2.848,2.509,3.571.552.382,1.488.722,1.488.935,0,.382-2.126.042-2.126.68,0,.6.256,1.488.256,2.041,0,.17-.043.382-.213.382-.383,0-1.361-1.828-1.828-1.828-.382,0-1.275,1.105-1.616,1.105a.194.194,0,0,1-.169-.212c0-.765,1.232-2.509,1.232-4.166,0-.808-.085-2.508-1.063-2.508-.807,0-1.7,1.275-2.082,2.508-.213.722-.085,3.528-.6,3.528s-.383-1.871-1.021-1.871c-.51,0-1.531.893-1.913.893-.085,0-.128-.042-.128-.085,0-.383.978-1.7.978-1.956,0-.51-2.211-.553-2.211-.978,0-.213.85-.382,1.658-.511,1.7-.3,4.167-1.53,4.167-3.231,0-1.913-1.871-2.764-3.061-3.529-.638-.382-1.318-.723-1.318-.978s.808-.255,1.148-.255c.511,0,.978-.043.978-.426,0-.3-.085-.892-.085-1.36,0-.341.042-.6.169-.6.511,0,1.191,1.615,1.531,1.615.511,0,1.275-1.318,1.743-1.318.171,0,.213.085.213.383,0,1.02-.638,2.381-.638,3.614M82.431,63.425c.382,2.806,4.166,1.4,4.166,4.8,0,.51-.128,1.233-.128,1.871,0,.722.085,1.361.638,1.361s.68-.383.68-.935c0-.51-.128-1.191-.128-1.574a1.318,1.318,0,0,1,1.319-1.445c1.275,0,2.21,1.276,4.123,1.276-.425,2.125-4.8,1.572-4.8,3.868,0,1.148,1.148,1.446,1.913,1.446.681,0,.935-.085.935-.681,0-.34-.085-.68-.085-.935a.246.246,0,0,1,.256-.255c.722,0,4.293,2.721,4.293,3.572,0,.765-3.784,1.53-4.889,1.53-.339,0-.382-.212-.382-.382,0-.212.553-.935.553-1.318,0-.3-.51-.51-1.829-.51-.637,0-1.1.085-1.1.553,0,.892,1.445,2,1.445,2.805,0,.681-.382,1.063-1.445,1.063-.893,0-2.254-.68-2.254-1.87,0-.935.936-1.871.936-2.424a.45.45,0,0,0-.511-.425c-1.233,0-1.573,3.231-5.909,3.614A3.374,3.374,0,0,0,81.5,75.669c0-.681-.169-1.276-.169-2.041,0-.978.468-1.488,1.147-1.488,1.234,0,1.828,1.743,2.637,1.743A.946.946,0,0,0,86,72.906c0-2.508-4.846-2.168-4.846-5.7a9.065,9.065,0,0,1,1.275-3.784" transform="translate(-30.267 -23.93)" fill="#2c41ca"/>
    <path id="Path_30" data-name="Path 30" d="M84.473,94.949a.781.781,0,0,0,.807.808.913.913,0,0,0,.851-.978c0-.68-.638-1.658-1.234-1.658-.255,0-.169.383-.212.851-.042.3-.212.722-.212.978M82.73,90.528c3.486.68,5.356,3.274,5.356,5.739A2.985,2.985,0,0,1,85.153,99.5a2.813,2.813,0,0,1-2.934-3.019c0-1.4,1.106-2.848,1.106-4.294a2.354,2.354,0,0,0-.6-1.658m-4.379,5.654a1.322,1.322,0,0,1,.425.978c0,.51-.213,1.02-.213,1.573a1.444,1.444,0,0,0,1.446,1.488,1.542,1.542,0,0,0,1.573-1.574c-.042-1.232-1.318-2.465-3.231-2.465m10.969-2.126a2.213,2.213,0,0,1,.34,1.063c0,.935-.638,1.786-.638,2.764a1.99,1.99,0,0,0,2.083,2A2.306,2.306,0,0,0,93.4,97.5c0-1.787-1.615-3.274-4.081-3.444m-10.2-1.743c1.531.212,1.913.723,1.913,1.148,0,.723-.68.978-1.318.978-.468,0-.978-.085-1.573-.085A2.527,2.527,0,0,0,76.1,95.2c.425.085,1.062.382,1.062,1.02,0,1.913-5.356.341-5.356,5.272,0,2.636,2.721,5.484,6.844,5.484,2.126,0,3.486-.681,3.486-1.488,0-.638-1.148-.212-1.148-.723,0-.212.383-.68.383-1.02,0-.171-.128-.468-.383-.468-.595,0-1.743.978-4,.978-1.785,0-3.529-1.021-3.529-2.424,0-.3.128-.468.34-.468s.468.128.681.128.212-.128.212-.511,0-1.4.638-1.4,1.828,2.339,6.419,2.339c1.531,0,4.464-.3,5.569-1.276a8.623,8.623,0,0,1-8.842,8.461,9.361,9.361,0,0,1-9.523-9.565,9.769,9.769,0,0,1,9.82-9.693c1.445,0,2.678.509,2.678,1.1,0,.851-2.168.3-2.338,1.361" transform="translate(-26.017 -33.9)" fill="#2c41ca"/>
    <path id="Path_31" data-name="Path 31" d="M41.641,31.3c2.168,0,3.188,1.871,3.188,4,0,.935-.255,2.3-.68,2.3s-.382-.765-.425-1.445c-.085-.893-.213-1.105-.511-1.105-.552,0-.935,1.318-.935,2.551,0,.765.128,1.616.723,1.616a1.22,1.22,0,0,0,.85-.383A2.964,2.964,0,0,1,41,41.674c-2.933,0-4-3.4-4.336-5.4-1.744,1.871-3.4,3.231-6.292,3.231a3.74,3.74,0,0,1-3.954-3.869c0-.553.212-2.041.892-2.041.808,0,.085,2.721,1.744,2.721.382,0,1.148-.34,1.53-1.445a6.9,6.9,0,0,0,.383-1.955c0-.894-.213-1.446-.851-1.446a2.438,2.438,0,0,0-1.488.681,5.016,5.016,0,0,1,4.846-3.614c2.636,0,4,2.338,4,4.889a10.474,10.474,0,0,1-.085,1.148c.978-1.871,2.551-3.274,4.251-3.274M39.09,35.213c0-.553-.127-.68-.255-.68-.34,0-.681.382-1.232,1.275.084,1.191.255,1.743.595,1.743.341-.042.892-1.191.892-2.338m-4.548,1.361c.382,0,.85-.383,1.7-1.361a6.628,6.628,0,0,0,.085-1.318c0-.68-.255-1.4-.68-1.4-.978,0-1.488,2.636-1.488,3.358-.042.383.17.723.383.723m5.4,2.934c.807,0,1.742-3.189,1.742-5.187,0-.425-.085-.892-.255-.892-.681,0-1.871,3.274-1.871,5.059,0,.723.171,1.021.384,1.021m-8.121-1.828c1.148,0,2.424-6.122,2.424-7.142,0-.255-.085-.468-.341-.468-1.02,0-2.465,5.824-2.465,7.1,0,.255.085.51.382.51" transform="translate(-9.969 -10.767)" fill="#2c41ca"/>
    <path id="Path_32" data-name="Path 32" d="M34.739,47.313c-1.445,0-1.488,1.743-1.488,5.187-1.062-2.3-2.806-4.762-4.889-4.762-1.4,0-1.913.935-1.913,2.551a9.748,9.748,0,0,0,.085,1.148,1.268,1.268,0,0,1,1.361-.808,6.112,6.112,0,0,1,4.294,2.594,24.054,24.054,0,0,0-3.614-.468,4.267,4.267,0,0,0-1.744.3,4.379,4.379,0,0,0-2.253,4c0,.341.042.681.085,1.106,1.148-2.594,4.251-3.741,6.249-3.741a5.427,5.427,0,0,1,.935.085,5.332,5.332,0,0,0-1.318,3.656c-.042.51-.212.552-.6.552,0,1.105.851,2.721.851,3.529a.735.735,0,0,1-.341.638c0,1.445,1.446,2.508,1.446,3.444a.808.808,0,0,1-.17.51c.085.6,1.7,1.616,1.913,2.084.255.595.552.722.723.722.552,0,1.445-.68,1.445-1.275a.7.7,0,0,0-.3-.51,4.686,4.686,0,0,1-1.233-2.126.608.608,0,0,1-.638-.468,22.792,22.792,0,0,0-.468-2.721c-.425-.085-.638-.255-.638-1.148,0-.425.255-2.125.255-2.721a.457.457,0,0,1-.468-.51c0-1.063,1.063-1.871,1.361-3.231A4.906,4.906,0,0,1,36.014,59a8.681,8.681,0,0,1-.212,1.871c1.4-.68,3.486-1.743,3.486-3.826,0-1.232-.553-2.593-4.294-3.1a11.908,11.908,0,0,1,3.826-.68c2.125,0,3.358.68,3.613,2.168a4.316,4.316,0,0,0,.765-2.126,2.811,2.811,0,0,0-3.1-2.678c-2.041,0-3.826,1.063-5.739,2.339.85-1.786,1.445-2.849,2.508-2.849a2.111,2.111,0,0,1,.51.085c-.34-1.488-1.871-2.891-2.636-2.891" transform="translate(-9.273 -17.851)" fill="#2c41ca"/>
    <path id="Path_33" data-name="Path 33" d="M126.921,85.682c1.658,0,2.976,2.168,2.976,4.676a10.491,10.491,0,0,1-3.528,7.609c-.042-4.463-5.527-3.061-5.527-6.292a2.2,2.2,0,0,1,2.211-2.338,3.482,3.482,0,0,1,2.508.892,2.923,2.923,0,0,1-.892-2.125,2.255,2.255,0,0,1,2.253-2.424" transform="translate(-45.594 -32.328)" fill="#2c41ca"/>
    <path id="Path_34" data-name="Path 34" d="M87.545,29.32a2.531,2.531,0,0,0-1.7-.68A2.639,2.639,0,0,0,83.208,30.6,3.247,3.247,0,0,1,83,29.448a3.182,3.182,0,0,1,3.4-3.231,5.768,5.768,0,0,1,3.231,1.1c.341,0,.681-.339.935-.339.383,0,.383.552.383.978,0,1.318-.6,3.614-2.084,4.463A3.332,3.332,0,0,0,87.2,30.85a.552.552,0,0,1-.34-.51,1.254,1.254,0,0,1,.68-1.021m-4.974,2.424a3.411,3.411,0,0,0,2.551,1.191c.382,0,.808-.085,1.02-.085.3,0,.511.128.511.383a1.975,1.975,0,0,1-.723,1.275,3.209,3.209,0,0,0,1.275.213,3.9,3.9,0,0,0,4.039-4.166,4.549,4.549,0,0,1,.638,2.126c0,3.614-2.636,5.016-5.1,5.016a7.354,7.354,0,0,1-2.593-.51c-.638,0-.6,1.275-1.021,1.233-.765-.128-1.445-1.828-1.445-3.614a5.05,5.05,0,0,1,.85-3.061" transform="translate(-30.832 -9.892)" fill="#2c41ca"/>
    <path id="Path_35" data-name="Path 35" d="M23.519.765c0-.213-.978-.382-2.338-.382-2.168,0-1.87,1.785-3.528,1.785C15.91,2.168,16.378.3,14.166.3c-1.318,0-2.551.212-2.551.51,0,.382,1.573.212,1.573,1.318,0,1.148-3.359,1.488-3.359,2.168,0,.213.255.341.6.341.723,0,1.871-.341,2.721-.341.468,0,.893.085.893.511,0,.85-1.786,2.338-1.786,2.976,0,.212.17.255.34.255.681,0,1.786-1.7,2.849-1.7,1.743,0,.595,3.741,1.573,3.741s.552-3.7,2-3.7c1.148,0,2.041,2.551,2.806,2.551a.381.381,0,0,0,.383-.382c0-.681-.978-2.126-.978-3.061a.828.828,0,0,1,.935-.85c.765,0,1.785.468,2.338.468.213,0,.383-.085.383-.3,0-.808-2.934-1.658-2.934-2.679-.042-.892,1.573-.892,1.573-1.36M31.3,4.124c0,.6,2.084,1.871,3.061,1.871.553,0,.722-.765.722-1.573,0-.978-.425-1.02-1.275-1.02-1.105.042-2.508.34-2.508.722m3.444,6.59c0-2-5.4-5.612-5.442-7.142a.677.677,0,0,1,.213-.425c.935-.978,4.761-1.7,4.761-2.508,0-.425-.808-.425-1.19-.425-3.1,0-7.611,1.148-7.611,2.211,0,1.148,4.039,3.869,4.039,5.229,0,.383-.213.51-.6.51-1.105,0-3.571-1.36-4.762-1.36-.51,0-.722.382-.722.892,0,1.574,1.871,4.592,1.871,5.484,0,.085-.042.213-.17.213-.6,0-3.4-3.316-4.422-3.316-.382,0-.382.511-.382,1.233v1.148c0,.765-.042,1.233-.383,1.233-.85,0-1.275-2.424-2.083-2.424-.85,0-1.02,4.294-1.871,4.294-.978,0-.128-4.762-1.063-4.762-1.02,0-2.168,3.146-2.934,3.146-.255,0-.34-.255-.34-.51,0-.978.553-2.508.553-3.444,0-.468-.128-.722-.51-.722-1.021,0-3.274,1.658-4.166,1.658-.128,0-.3-.085-.3-.212,0-.808,3.614-3.316,3.614-4.464,0-1.105-4.974-.382-4.974-1.615,0-1.063,3.571-2.168,3.571-3.231C9.448.425,5.239,0,3.623,0,1.668,0,.6.212.6.808c0,.85,4.464,1.148,4.464,1.871S.477,5.356.477,6.5c0,.978,6.5.085,6.5,1.1,0,1.148-5.654,5.995-5.654,7.611,0,.382.255.51.638.51,1.743,0,6.207-3.274,7.44-3.274.425,0,.468.51.468.978,0,.851-.3,2.168-.3,3.146,0,.765.213,1.276.85,1.276,1.233,0,2.338-2.084,3.189-2.084,1.063,0,.425,6.122,2.041,6.122,1.361,0,1.913-6.632,2.763-6.632s1.574,1.913,2.339,1.913c.978,0,.51-3.358,1.573-3.358,1.148,0,4.464,4,5.952,4,.468,0,.638-.383.638-.851,0-1.742-2.466-5.739-2.466-7.014,0-.341.085-.425.468-.425,1.276,0,5.059,1.785,6.845,1.785.638.17.978-.17.978-.595M4.473,8.8c0,.68-2.508,2.891-3.4,2.891-.34,0-.425-.383-.425-.765a2.764,2.764,0,0,1,.68-1.871A3.831,3.831,0,0,1,3.5,8.46c.468-.042.978.043.978.341m24.36,3.4c0,1.148,4.166,6.845,4.932,6.845.681,0,1.148-1.148,1.148-2.168a1.432,1.432,0,0,0-.213-.722c-.6-.851-4.8-4.166-5.739-4.166-.042,0-.128.128-.128.212" transform="translate(-0.18)" fill="#2c41ca"/>
    <path id="Path_36" data-name="Path 36" d="M123.756,2.272a.818.818,0,0,0,.85.808.846.846,0,0,0,.851-.808.851.851,0,0,0-1.7,0m-5.4,7.313c0-2.339-5.654-2.934-5.654-3.486,0-.425,3.146-1.148,4.762-1.191-2.508-3.188-6.037-2.848-6.037-3.4,0-.34,2.636-.977,5.1-.977,2.041,0,4,.468,4,2.04,0,.851-.681,1.744-.681,3.1a1.237,1.237,0,0,0,1.318,1.361c1.02,0,1.275-1.105,1.275-2.253,0-.978-.17-1.7-.17-2.168a2.2,2.2,0,0,1,2.3-2.338c1.148,0,1.4.51,3.061.51a2.569,2.569,0,0,0-1.232,1.955c0,1.4.892,2.339.892,5.187,0,5.229-4.889,7.1-10.926,7.1a35.844,35.844,0,0,1-5.144-.382c-.255-.042-.34-.085-.34-.255,0-.425,2.338-.68,2.338-2.806a16.236,16.236,0,0,0-.255-1.913.245.245,0,0,1,.255-.255c.51,0,1.488,1.913,3.358,1.913a1.665,1.665,0,0,0,1.785-1.742m5.612-3.359c0,2.933-2.168,5.186-6.037,5.824.425.042.85.042,1.233.042,4.549,0,6.207-2.04,6.207-3.784a2.18,2.18,0,0,0-1.4-2.083" transform="translate(-41.833 -0.103)" fill="#2c41ca"/>
    <path id="Path_37" data-name="Path 37" d="M119.534,64.5a18.525,18.525,0,0,1,2.3-4.591c-1.106-.553-4-1.743-4-3.7,0-2.3,2.848-4.082,3.444-4.082.255,0,.34.213.34.681,0,1.19-.553,3.1-.553,4.166,0,.935.6,1.828,1.148,1.828s2.125-2,2.125-3.954a4.488,4.488,0,0,0-4.038-4.591c-.893,0-2.509,1.445-6.335,1.445-7.142,0-8.758-7.057-8.758-10.161,0-.128.043-.17.085-.17a5.056,5.056,0,0,0,3.1.851c1.147,0,2.21-.3,3.911-.3,3.953,0,5.739,2.764,8.2,6.249,1.488.935,5.059,2.423,5.059,6.632,0,3.7-3.954,5.782-4.889,9.736,1.531-.17,2.424-2.891,4-2.891.808,0,1.148.638,1.148,1.616a7.348,7.348,0,0,1-2.424,5.016,1.76,1.76,0,0,0,.042-.511c0-.935-.382-2.253-1.445-2.253-1.658,0-2.168,1.785-3.1,3.274-.978-3.4-2.253-6.419-4.592-8.29s-6.419-.851-6.419-4.293c0-.935.6-2.254.6-3.316a1.858,1.858,0,0,0-.255-.978c3.188,1.191,2.041,3.316,4.039,5.484,1.233,1.4,4.591,2.721,6.547,8.46a4.9,4.9,0,0,0,.085-.893c0-4.889-6.5-9.735-7.057-11.691,3.784.425,4.421,1.36,6.249,6.334.255,1.063,1.445,3.614,1.445,4.889m-.85-16.112c0-.68-1.743-.765-1.913-2.721-.043-.3-.127-.808-.511-.808-.595,0-.127,1.828-.807,1.828-1.531,0-2.041-2.976-2.594-2.976-.127,0-.3.085-.3.511,0,.382.085.595.085,1.02s-.085.722-.511.722c-.892,0-1.7-2.083-2.466-2.083-.17,0-.34.085-.34.255,0,.382.68,1.148.68,1.488,0,.808-2.168.382-2.168,1.02,0,.3.3.382.68.382.68,0,1.786-.3,2.338-.3.34,0,.851.085.851.511,0,.468-1.191,1.063-1.191,1.488,0,.213.212.3.383.3.892,0,2.465-1.573,3.614-1.573.212,0,.68.085.68.383,0,.425-1.105,1.19-1.105,1.828,0,.17.085.383.3.383.6,0,1.4-1.573,2.509-1.573.425,0,1.063.17,1.4.17a.3.3,0,0,0,.382-.255" transform="translate(-39.695 -15.61)" fill="#2c41ca"/>
    <path id="Path_38" data-name="Path 38" d="M84.892,12.95c.553,0,.638,1.276.722,2.041.085.382.128.425.3.425.382,0,1.02-1.531,1.445-1.531.637,0,2.338,1.744,5.144,1.744a7.541,7.541,0,0,0,7.78-7.78c0-4.8-3.4-7.61-8.078-7.61-2.211,0-3.869,1.105-4.719,1.105-.51.042-1.318-1.275-1.7-1.275-.171,0-.34.34-.34.892,0,.383,0,1.531-.383,1.531-.808,0-3.868-2.3-3.868-1.445,0,.765,2.04,3.1,2.04,3.7s-2.04,1.148-2.04,1.573c0,.723,2.168.85,2.168,1.786s-2.253,1.658-2.253,2.338c0,.553,2.253.17,2.253.851s-1.658,3.018-1.658,3.7c0,.17.042.17.169.17.638-.043,2.551-2.211,3.019-2.211m.935-5.441c0-.383-1.275-1.064-1.275-1.446,0-.085.085-.085.17-.085.382,0,.978.128,1.488.128.425,0,.511-1.871.808-1.871.213,0,.638,1.742.978,1.742.425,0,1.234-.509,1.574-.509.085,0,.128.042.128.085,0,.212-.85,1.105-.85,1.4s1.871.681,1.871.935c0,.34-1.914.3-1.914.6,0,.212.68,1.148.68,1.445,0,.085-.042.085-.085.085-.255,0-1.275-.468-1.572-.468-.382,0-.935,1.36-1.276,1.36-.085,0-.169-.128-.169-.3l-.085-1.318a.238.238,0,0,0-.213-.255C85.7,9.04,84.934,9,84.679,9c-.169,0-.212-.042-.212-.085.043-.212,1.361-1.148,1.361-1.4M92.289,13.8c-2.338,0-3.869-1.148-3.869-1.743a.483.483,0,0,1,.468-.511c.722,0,2.338,1.106,2.848,1.106.127,0,.212-.085.212-.255,0-.6-.553-1.573-.553-2.084,0-.127.085-.212.3-.212.893,0,2.211.383,2.934.383.212,0,.3-.128.3-.255,0-.723-2.168-2.168-2.168-2.593,0-.383,2.679-.978,2.679-1.616,0-.68-3.656-.212-3.656-.85,0-.468.68-1.276.68-1.616,0-.17-.128-.212-.382-.212-.3,0-1.913.638-2.551.638-.34,0-.723-.085-.723-.51C88.8,2.7,90.078,1.9,92.119,1.9c3.273,0,5.229,2.253,5.229,6.036.085,4.676-3.231,5.867-5.059,5.867" transform="translate(-30.602 -0.026)" fill="#2c41ca"/>
    <path id="Path_39" data-name="Path 39" d="M56.576,112.795a1.441,1.441,0,0,1-.382.978,2.419,2.419,0,0,0-1.871-.978c-3.4,0-2.126,4.932-5.782,4.932a15.663,15.663,0,0,1-2.211-.213c-.213,0-.382.085-.382.3,0,.851,1.232,2.976,4.633,2.976S57.3,118.7,57.3,116.111a3.289,3.289,0,0,0-.3-1.36.933.933,0,0,1,.765-.34c.51,0,.808.595,1.318.595a.916.916,0,0,0,.935-.935.994.994,0,0,0-.638-.935,1.166,1.166,0,0,0,.468-.893,1.06,1.06,0,0,0-1.062-1.105.845.845,0,0,0-.723.341c-.085-.6-.383-1.148-1.021-1.148a.85.85,0,0,0-.85.935c.042.553.382.978.382,1.531" transform="translate(-17.336 -41.627)" fill="#2c41ca"/>
    <path id="Path_40" data-name="Path 40" d="M41.644,109.974c-.978,0-2.508-1.062-2.508-1.658a.794.794,0,0,1,.808-.765c.85,0,2.338,1.02,2.338,1.871.042.255-.128.552-.638.552m-9.225-7.439c2.636.68,4,2.083,4.251,3.784a7.277,7.277,0,0,0,1.234,3.614,5.759,5.759,0,0,0,3.869,1.744c1.19,0,2.168-.383,2.168-1.488,0-1.191-1.615-3.869-4-3.869-.213,0-.51.043-.851.043a1.655,1.655,0,0,1-.978-.3c-.51-.468-.679-2.933-1.7-4.463A4.192,4.192,0,0,0,32.5,99.473c-1.148,0-2.466.638-2.466,1.573-.042.553.255.935,2.381,1.488" transform="translate(-11.332 -37.531)" fill="#2c41ca"/>
    <path id="Path_41" data-name="Path 41" d="M53.886,84.585c0-1.488-3.1-1.531-3.1-3.784a5.288,5.288,0,0,1,1.106-2.551A3.534,3.534,0,0,0,54.4,81.439c2.934,1.105,3.358,2.763,3.358,4.506,0,2.976-2.082,6.717-7.482,6.717a7.551,7.551,0,0,1-7.4-7.1c0-.893.213-1.871.808-1.871.51,0,.68.383,1.063.808,1.487,1.488,3.1,1.871,5.483,1.871,2.127-.043,3.656-.894,3.656-1.786m.128,2.381c-1.148.51-1.573.425-1.573,1.573,0,.425-.085.978-.085,1.275,0,.383.085.638.51.638,1.19,0,3.1-2.041,3.1-3.741,0-.468-.255-.681-.552-.681-.3.042-.6.553-1.4.935M43.47,70.216c0-2.126,5.059-3.231,5.059-5.867a4.288,4.288,0,0,0-.468-1.743c1.743.978,3.061,2.594,3.061,3.911,0,2.3-2.381,3.359-2.381,4.762,0,1.658,2.551,1.913,2.551,4,0,1.7-2.424,3.656-2.424,5.825a3.288,3.288,0,0,0,3.019,3.316,8.127,8.127,0,0,1-1.7.212c-3.358,0-6.8-2.763-6.8-6.036a5.643,5.643,0,0,1,1.744-4.081,4.677,4.677,0,0,0,2.466,1.318c.51,0,.765-.255.765-.681-.043-1.19-4.889-2.3-4.889-4.931" transform="translate(-16.177 -23.621)" fill="#2c41ca"/>
    <path id="Path_42" data-name="Path 42" d="M12.892,97.744a2.152,2.152,0,0,0,2.381,1.871,2.613,2.613,0,0,0,1.105-.34,2,2,0,0,0,2.339,1.573,2.087,2.087,0,0,0,1.913-2.339,2.027,2.027,0,0,0-.212-.765,1.105,1.105,0,0,0,.3-.043,2.221,2.221,0,0,0,1.914-2.338,2.172,2.172,0,0,0-2.338-1.956,1.874,1.874,0,0,0-1.105.468,2.253,2.253,0,0,0-2.509-1.658A2.133,2.133,0,0,0,14.89,94.64a2.263,2.263,0,0,0,.17.68,2.261,2.261,0,0,1-.34.043,2.2,2.2,0,0,0-1.828,2.381M19.1,96.469a1.263,1.263,0,1,1-1.4-1.105,1.248,1.248,0,0,1,1.4,1.105" transform="translate(-4.857 -34.782)" fill="#2c41ca"/>
    <path id="Path_43" data-name="Path 43" d="M212.232,72.865a4.388,4.388,0,0,0,3.826-2.338,23.876,23.876,0,0,1-1.318-6.036c-.382-6.08,1.956-11.776,4.506-11.9,1.871-.127,3.358,1.658,3.529,4.549.468,7.568-2.041,10.714-3.316,13.434a4.453,4.453,0,0,0,3.7,2.848,2.457,2.457,0,0,0,1.573-.553,6,6,0,0,1-.255-1.828c0-4.379,2.806-8.078,5.272-8.078,1.956,0,3.061,2.551,3.061,4.251,0,2-1.7,3.614-4.166,5.186a3,3,0,0,0,1.955.765c3.571,0,5.441-4.294,6.8-8.247.255-.766.681-1.829,1.573-1.829,1.488,0,2.126,9.864,4.634,9.864,1.063,0,1.955-2.168,1.955-3.869,0-1.232-.425-1.36-.425-3.188,0-2,1.063-3.7,2.509-3.7.892,0,1.189.85,1.189,1.912,0,4-2.891,11.436-7.142,11.436-3.189,0-2.934-5.484-4.081-5.484-1.276,0-3.019,5.569-9.184,5.569A3.963,3.963,0,0,1,225.5,74.14a7.091,7.091,0,0,1-4.209,1.445c-2.3,0-3.316-2.381-4.251-2.381-1.106,0-2.381,2.424-6.122,2.424-3.019,0-3.486-4-4.549-4-.935,0-2.381,4-3.954,4-2.636,0-3.189-6.929-5.484-6.929-1.828,0-7.525,7.057-9.1,6.886a.908.908,0,0,1-.808-1.147c.085-.851.851-3.189,1.148-4.294.511-1.913.978-4,1.233-4.634A1.647,1.647,0,0,1,190.89,64.4c.3.043.382.553.468.978.3,1.53.765,3.1,1.233,3.1.893,0,3.783-5.569,5.484-5.569,2.083,0,2.3,8.758,5.145,8.758.935,0,1.615-1.105,2.253-2.508.042-2.3.68-5.612,2.551-5.612,1.318,0,1.956,2.934.978,5.485-.085,3.061,1.913,3.826,3.231,3.826m50-7.525c-.765,3.231-3.1,7.95-6.632,7.95-.807,0-2.253-.3-2.253-1.148,0-.893,5.484-.978,5.484-5.187a3.884,3.884,0,0,0-3.571-3.741c-2.806,0-5.569,3.061-5.569,7.312,0,3.826,2.381,5.059,4.719,5.059,4.124,0,6.632-3.358,7.949-6.206.639,1.871.978,6.206,2.551,6.206.638,0,1.063-.3,1.828-2,1.871-4.209,3.7-9.013,6.207-9.013.935,0,.382,1.7,2.637,1.7A1.85,1.85,0,0,0,277.4,64.4c0-1.445-1.318-2.551-3.315-2.551-5.868,0-7.142,8.8-8.078,8.8-1.573,0-1.063-7.058-2.168-7.058-1.021,0-1.488,1.191-1.616,1.743m-41.493-6.547c-.128-1.743-.51-2.55-1.488-2.465-1.233.084-1.828,4-1.573,8.12.17,2.678.552,3.1.935,3.061.723-.043,2.381-4.846,2.125-8.715m-10.161-3.7a1.85,1.85,0,0,0-1.955-1.7A2.454,2.454,0,0,0,206.45,56.2a1.834,1.834,0,0,0,1.871,1.87c1.4.042,2.381-1.531,2.253-2.976M230.044,67.85c0-1.063-.552-1.957-1.233-1.957-.553,0-1.871.637-1.871,2.635a3.944,3.944,0,0,0,.808,2.636,3.223,3.223,0,0,0,2.3-3.315m24.4-2.126c1.318,0,1.7,1.573,1.361,2.508a3.956,3.956,0,0,1-3.189,2.3c-.34-.935-.552-4.8,1.828-4.8M182.472,61.3a23.011,23.011,0,0,1-.85-2.806c-.3-2.084.765-3.444,1.785-3.783,1.105-.3,1.573.254,2,1.572a27.02,27.02,0,0,1,.425,8.375c-.255,5.143-2.806,11.309-9.183,11.181-5.484-.128-7.95-3.7-8.205-9.141a24.739,24.739,0,0,1,1.105-8.758c.553-1.955,1.063-2.635,2.806-3.018,1.361-.255,1.233,1.19.935,2.89a33.445,33.445,0,0,0-.765,9.821c.255,4.506,2.3,6.249,4.549,6.249,3.358.085,4.889-2.764,5.484-6.8.638-3.231.255-4.8-.085-5.782" transform="translate(-63.54 -19.839)" fill="#2c41ca"/>
    <path id="Path_44" data-name="Path 44" d="M202.6,16.494c.383.3.638.382.68.552,1.574,3.444,1.531,3.444,3.954.511.85-1.021,1.488-2.806,3.1-2.466,1.36.3,1.36,2.04,1.871,3.231.85,1.956.978,4.932,3.316,5.144,2.806.255,2.934-2.934,3.911-4.889,1.021-2.082,2-4.208,4.974-3.741,1.233.17,1.4-.638,1.488-1.573.17-1.955.34-3.869.595-5.824.085-.766-.3-1.956,1.106-1.914,1.148.043,1.233.978,1.233,1.914,0,2.806-.085,5.654.042,8.46A29.548,29.548,0,0,0,229.6,21c.341,1.445.808,3.274,2.551,3.359,1.785.085,2.338-1.7,2.763-3.146.468-1.658.851-3.359,1.276-5.017.127-.595,0-1.445,1.02-1.275.851.128.851.893.765,1.531-.128,1.19-.255,2.381-.425,3.528-.127.851-.552,1.914.213,2.466.892.638,1.87-.212,2.678-.679a11.328,11.328,0,0,0,3.188-3.614c.723-1.062.978-2.424,2.424-3.359,1.063,2.041.723,4.251.978,6.292.3,2.551,1.275,3.018,3.316,1.488A10.67,10.67,0,0,0,254,16.962c.85-2.636,1.913-2.891,3.954-.978a9.317,9.317,0,0,1,2.594,5.144c.382,1.871,1.105,1.871,2.3.765,1.063-.978,2.594-7.652,2.041-8.971-.553-1.275-2.126-.892-3.274-2.082,2.848-.426,4.676-1.744,5.186-4.592a.747.747,0,0,1,1.488-.085c-.511,3.529,1.913,4.124,4.378,4.506-.042,1.021-.68,1.106-1.148,1.233-1.445.468-3.7-.638-4.039,2.083-.425,3.316-1.36,6.632.935,9.694,1.021,1.318,1.913.765,2.551-.255.893-1.488,1.531-3.1,2.339-4.634,1.105-2.168,2.211-3.1,5.272-3.316,4.293-.255,3.358,1.956,3.614,4.123a6.136,6.136,0,0,0,.212,1.276c.51,1.361.468,3.316,2.508,3.316,1.913,0,2.254-1.744,2.721-3.146.467-1.488.382-3.231,1.785-4.336.212.128.468.17.552.34,1.744,3.486,1.7,3.486,4.252.425.425-.51.893-.978,1.275-1.488,1.275-1.658,2.168-1.445,2.848.468.425,1.233.85,2.466,1.318,3.656,1.445,3.657,1.871,3.784,5.314,1.828a3.942,3.942,0,0,1-1.275,3.486c-1.488,1.742-2.891,1.7-4.082-.383a1.848,1.848,0,0,1-.17-.3c-2.423-5.314-2.253-6.972-8.46-1.063-2.211,2.125-4.932,4-7.4,2.593-3.146-1.785-5.272-.68-8.163.042-2.125.511-4.676-.765-7.142.468-.851.425-2.3-.68-2.891-1.743-1.191-2.126-2.338-1.531-3.741-.255a7.828,7.828,0,0,1-5.612,2.169c-1.105-.043-2.3-.468-2.381-1.786-.085-1.445,1.233-.851,1.955-.935a2.086,2.086,0,0,0,2.168-1.956,4.183,4.183,0,0,0-1.4-3.826c-.893-.765-1.275.3-1.7.851a37.48,37.48,0,0,1-4.379,5.611c-2.721,2.509-4.166,2.211-4.846-1.275-.553-2.848-1.4-2.338-2.934-.765-1.233,1.318-2.508,3.742-4.123,3.359-2.891-.765-6.377.935-7.95-.085-3.4-2.169-5.612-1.446-8.248.552a1.465,1.465,0,0,1-1.233.171c-2-1.913-3.783-2.125-6.207-.382-1.105.808-1.828-1.106-2.424-2.084-3.231-5.441-3.486-5.7-7.865-1.021-2.551,2.721-5.569,2.466-8.545,3.061a2,2,0,0,1-2.125-1.191c-1.021-2.04-1.956-1.913-3.571-.382-3.869,3.614-7.27,2.466-8.5-2.635-.085-.3-.127-.638-.212-.935-.34-1.531.6-3.7-1.105-4.464-2-.851-4.251.042-6.335.6-1.53.382-1.488,1.7-1.615,2.848-.212,1.616-.255,3.231-.468,4.846-.128,1.021-.638,1.871-1.913,1.785-1.318-.085-1.573-.935-1.446-2.041a62.522,62.522,0,0,0-.17-17.813c-.17-.893,0-1.743,1.233-1.871s1.786.383,1.914,1.615a21.061,21.061,0,0,0,.468,3.231c.339,1.488-.765,3.869,1.062,4.379a12.128,12.128,0,0,0,7.312-.722c.893-.341.893-1.445.935-2.3a22.566,22.566,0,0,1,.213-2.933c.339-1.531.468-3.7,2.763-3.146,2.041.51.851,2.466.638,3.571a36.383,36.383,0,0,0-.255,11.946c.212,1.572.595,3.485,2.678,3.571,1.955.042,3.1-1.445,3.7-3.146.425-1.233.51-2.551.935-3.784.3-.85.553-2.084,1.871-1.828,1.106.212,1.021,1.275.978,2.126,0,1.063-.085,2.168-.128,3.231-.042,1.488.212,2.976,1.956,3.274,1.573.3,2.636-.766,3.358-2.084,1.105-1.7.808-4,2.508-5.7m23.68,2.891c-.212-1.191-.128-2.551-1.743-2.721-1.488-.127-3.4,3.146-3.444,5.7,0,1.191.255,2.423,1.658,2.168,2.806-.51,3.1-2.934,3.529-5.144m48.465,2.551c.128,1.063-.042,2.551,1.4,2.508,2.381-.128,3.018-2.041,3.146-4.081.042-1.191.085-2.806-1.488-2.679-2.338.213-2.636,2.381-3.061,4.251" transform="translate(-63.54 -1.949)" fill="#2c41ca"/>
    <path id="Path_45" data-name="Path 45" d="M209.709,5.4a1.655,1.655,0,0,1,1.7,1.573A2.056,2.056,0,0,1,209.5,9.441c-.978.043-1.445-.765-1.488-1.7a2.26,2.26,0,0,1,1.7-2.338" transform="translate(-78.482 -2.038)" fill="#2c41ca"/>
    <path id="Path_46" data-name="Path 46" d="M194.173,113.622c.468,1.19.935,2.338,1.488,3.614,1.828-.85,2.551-2.508,3.614-3.784,1.658-2,2.423-1.488,3.188.638,1.318,3.571,1.36,3.486,4.081.765,1.105-1.106,1.914-3.274,3.7-2.678s1.488,2.891,1.913,4.506a3.253,3.253,0,0,0,.085.638c.425,1.36-.085,3.571,1.743,3.741,2.126.213,3.018-1.785,3.529-3.613.085-.3.085-.638.169-.978.341-1.531.128-3.868,2.254-3.614,1.53.212.722,2.381.808,3.7.042.765-.085,1.53,0,2.253a2.623,2.623,0,0,0,2,2.636,2.545,2.545,0,0,0,2.678-1.488c1.785-2.975,2-6.376,2.126-9.735.085-2-2.679-.552-3.1-2.508,2.338-.34,4.464-1.148,4.8-4a.979.979,0,0,1,1.191-.85c.255.042.638.468.6.638-.808,3.7,2.3,3.571,4.379,4.251-.127.893-.722.935-1.19,1.106-1.488.468-3.7-.511-4.082,2.125-.468,3.316-1.318,6.675.808,9.736a2.572,2.572,0,0,0,2.635.892c1.234-.17.978-1.232,1.021-2.041A11.6,11.6,0,0,1,236.219,114c1.147-1.742,2.678-3.316,4.761-1.742,1.913,1.445,1.785,3.571.51,5.526a11.566,11.566,0,0,1-1.573,1.658c-.468.51-1.531.893-.892,1.786.467.68,1.4.51,2.125.382,2-.34,3.1-1.785,4.124-3.358,1.742-2.764,2.168-6.93,7.014-6.42.893.085.893-1.361.935-2.168.171-1.828.213-3.7.34-5.527.042-.638.171-1.4,1.021-1.4,1.02-.043,1.233.723,1.233,1.531,0,2.168-.085,4.336,0,6.5a49.008,49.008,0,0,0,.595,6.122c.681,3.954,1.744,4.676,5.57,3.826-2,3.613-4.124,4.081-6.8,1.147-1.275-1.4-1.828-.722-2.806.128-2.211,1.956-4.464,3.444-6.589-.169-.681-1.191-1.488-.426-2.168.042a7.666,7.666,0,0,1-7.653,1.106,2.388,2.388,0,0,0-1.87.085,15.206,15.206,0,0,1-1.828.6c-2.678.851-3.656-2.126-5.485-2.508-1.785-.34-2.721,3.019-5.143,2.551a2.121,2.121,0,0,1-1.361-.808c-1.616-3.359-3.274-1.871-5.4-.382-3.018,2.126-3.784,1.7-4.548-1.785-.085-.3-.171-.638-.256-.935-.255-1.021-.255-2.424-1.318-2.806-1.19-.383-1.828.935-2.508,1.7-1.105,1.191-2.083,2.509-3.1,3.741-.425.468-.935,1.063-1.615.808-.722-.3-.511-1.063-.553-1.7-.085-1.445.681-3.571-.808-4.166-1.828-.765-3.231,1.232-4.039,2.551-2.041,3.4-5.569,2.848-8.545,3.826a1.719,1.719,0,0,1-1.955-.893c-1.4-2.891-3.189-2.041-5.1-.68a2.57,2.57,0,0,1-.6.3c-8.162,3.656-11.648,1.446-11.521-7.4a49.7,49.7,0,0,1,.978-9.693c.341-1.531.638-3.444,2.594-3.019,2.126.468,1.148,2.466.851,3.826a33.833,33.833,0,0,0-.893,10.331c.171,2-.213,4.548,2.934,5.016,3.316.468,6.887-1.275,7.78-3.911.468-1.318.765-2.721,1.233-4.038.212-.6.6-1.318,1.318-1.148.681.171.892.893.935,1.531q.063,2.1,0,4.209c0,1.531.213,2.976,1.955,3.274,1.616.255,2.679-.765,3.316-2.125.468-.978.6-2.084,1.02-3.061.425-.851.383-2.041,1.743-2.636m54.119,6.037c.128.935.128,2.083,1.616,2.168,1.658.085,3.486-2.636,3.444-5.145,0-1.232-.212-2.466-1.658-2.721-1.445-.3-3.444,3.061-3.4,5.7m-11.563-2.3c.213.85-.085,2.3,1.233,2.168,1.616-.127,2.211-1.658,2.211-3.1,0-1.063-.468-2.424-1.743-2.211-1.488.255-1.615,1.786-1.7,3.146" transform="translate(-63.54 -38.596)" fill="#2c41ca"/>
    <path id="Path_47" data-name="Path 47" d="M194.939,102.734c1.062.255,1.871.722,1.743,1.743a2.146,2.146,0,0,1-2,2.168c-1.063.043-1.488-.723-1.488-1.7a2.14,2.14,0,0,1,1.744-2.211" transform="translate(-72.893 -38.762)" fill="#2c41ca"/>
    <path id="Path_48" data-name="Path 48" d="M252.144,105.132a1.857,1.857,0,0,1-1.956,1.616A1.5,1.5,0,0,1,248.7,105a1.908,1.908,0,0,1,2.041-2c1.062,0,1.53.638,1.4,2.126" transform="translate(-93.834 -38.864)" fill="#2c41ca"/>
  </g>
</svg>
