<svg id="Group_3" data-name="Group 3" xmlns="http://www.w3.org/2000/svg" xmlns:xlink="http://www.w3.org/1999/xlink" width="260" height="91.717" viewBox="0 0 260 91.717">
  <defs>
    <clipPath id="clip-path">
      <rect id="Rectangle_4" data-name="Rectangle 4" width="260" height="91.717" fill="none"/>
    </clipPath>
  </defs>
  <path id="Path_1" data-name="Path 1" d="M22.785,5.083V29.055h-1L4.7,5.083H0V37.045H4.2V12.937h.913L22.282,37.045h4.7V5.083Z" transform="translate(0 -3.577)"/>
  <path id="Path_2" data-name="Path 2" d="M99.973,4.313h3.79V8.422h-3.79Zm0,7.168h3.79V36.5h-3.79Z" transform="translate(-70.34 -3.035)"/>
  <g id="Group_2" data-name="Group 2">
    <g id="Group_1" data-name="Group 1" clip-path="url(#clip-path)">
      <path id="Path_3" data-name="Path 3" d="M127.306,30.957a3.845,3.845,0,0,0,1.644-.411,14.241,14.241,0,0,0,1.644-.913l2.191,3.059a11.037,11.037,0,0,1-2.945,1.644,7.6,7.6,0,0,1-2.4.456,5.033,5.033,0,0,1-2.123-.411,5.742,5.742,0,0,1-1.507-.982,5.609,5.609,0,0,1-.982-1.164q-.365-.593-.593-.959a12.509,12.509,0,0,1-2.831,2.078,6.555,6.555,0,0,1-3.1.8v-3.79a3.825,3.825,0,0,0,2.146-.845,15.161,15.161,0,0,0,2.511-2.351,28.078,28.078,0,0,1-.411-4.7,43.874,43.874,0,0,1,1.05-10.342,29.6,29.6,0,0,1,2.511-6.963,12.489,12.489,0,0,1,3.036-3.927A4.709,4.709,0,0,1,129.817,0a3.416,3.416,0,0,1,2.169.662,4.607,4.607,0,0,1,1.3,1.575,6.651,6.651,0,0,1,.617,1.849,9.528,9.528,0,0,1,.16,1.53,27.83,27.83,0,0,1-.571,5.73,35,35,0,0,1-1.461,5.091,32.568,32.568,0,0,1-1.963,4.315Q129,22.693,128.014,24.2a29.152,29.152,0,0,1-1.8,2.511q-.822,1-1.141,1.461.137.457.3.936a5.2,5.2,0,0,0,.388.89,2.147,2.147,0,0,0,.594.685,1.557,1.557,0,0,0,.959.274m-1-21.46A38.591,38.591,0,0,0,124.818,16a46.049,46.049,0,0,0-.48,6.415,49.687,49.687,0,0,0,4.109-8.675,32.121,32.121,0,0,0,1.3-4.269,26.946,26.946,0,0,0,.5-3.014,6.714,6.714,0,0,0-.023-1.872,1.951,1.951,0,0,0-.274-.8,1.614,1.614,0,0,0-1.187.73,10.1,10.1,0,0,0-1.1,1.69,17.625,17.625,0,0,0-.868,1.918q-.366.959-.5,1.37" transform="translate(-81.829 0.001)"/>
      <path id="Path_4" data-name="Path 4" d="M199.624,36.7a9.568,9.568,0,0,1,1.05.776,7.3,7.3,0,0,1,1.461,1.735,12.088,12.088,0,0,1,1.278,2.9,14.658,14.658,0,0,1,.548,4.315V53.41h-3.79V46.424q0-1.141-.091-2.351a5.786,5.786,0,0,0-.639-2.26q-.092.914-.32,2.237a17.389,17.389,0,0,1-.731,2.762,17.674,17.674,0,0,1-1.3,2.854,10.127,10.127,0,0,1-2.032,2.534,9.968,9.968,0,0,1-2.968,1.826,10.718,10.718,0,0,1-4.064.708,11.973,11.973,0,0,1-4.475-.753,8.722,8.722,0,0,1-3.082-2.009,8.161,8.161,0,0,1-1.8-2.854,9.236,9.236,0,0,1-.593-3.242,10.164,10.164,0,0,1,.868-4.064,11.246,11.246,0,0,1,2.466-3.584,12.36,12.36,0,0,1,3.927-2.557,13.4,13.4,0,0,1,5.251-.982q1.461,0,2.762.114a18.169,18.169,0,0,1,2.489.388c0-.213-.008-.479-.023-.8s-.031-.639-.046-.959-.031-.6-.045-.845-.023-.4-.023-.456H178.164v-3.79h21.277q.045,1.964.091,3.607.045,1.462.069,2.831t.023,1.918m-11.6,14.246a7.492,7.492,0,0,0,3.219-.617,6.492,6.492,0,0,0,2.169-1.621,7.193,7.193,0,0,0,1.324-2.26,16.613,16.613,0,0,0,.708-2.58,17.178,17.178,0,0,0,.3-2.557q.045-1.232.091-2.192a12.889,12.889,0,0,0-2.283-.479,24.26,24.26,0,0,0-2.968-.16,14.645,14.645,0,0,0-2.762.3,8.4,8.4,0,0,0-2.854,1.119,6.835,6.835,0,0,0-2.215,2.26,6.98,6.98,0,0,0-.89,3.721,4.548,4.548,0,0,0,1.644,3.721,6.929,6.929,0,0,0,4.52,1.347" transform="translate(-125.29 -19.942)"/>
      <path id="Path_5" data-name="Path 5" d="M283.916,24.954a8.247,8.247,0,0,1,3.607.708A6.445,6.445,0,0,1,289.9,27.58a8.134,8.134,0,0,1,1.347,2.854,13.747,13.747,0,0,1,.434,3.516V51.026h-3.79V33.949a7.286,7.286,0,0,0-.867-3.721,3.292,3.292,0,0,0-3.1-1.484,7.347,7.347,0,0,0-3.7.936,9,9,0,0,0-2.785,2.466,11.793,11.793,0,0,0-1.758,3.424,12.27,12.27,0,0,0-.616,3.812V51.026h-3.79V26h3.79v5.525h.365a20.87,20.87,0,0,1,1.278-2.351,10.428,10.428,0,0,1,1.735-2.1,8.369,8.369,0,0,1,2.351-1.53,7.706,7.706,0,0,1,3.128-.594" transform="translate(-190.861 -17.557)"/>
      <path id="Path_6" data-name="Path 6" d="M325.482,11.481h3.79V38.056a17.919,17.919,0,0,1-.434,4.087,9.021,9.021,0,0,1-1.37,3.173,6.555,6.555,0,0,1-2.329,2.055,7.044,7.044,0,0,1-3.31.73,5.551,5.551,0,0,1-2.26-.434,7.093,7.093,0,0,1-1.712-1.05,6.559,6.559,0,0,1-1.21-1.324,7.437,7.437,0,0,1-.708-1.255l3.516-1.37v-.046q.046.091.183.342a3.011,3.011,0,0,0,.434.571,2.732,2.732,0,0,0,.73.548,2.182,2.182,0,0,0,1.028.229,4.1,4.1,0,0,0,1.347-.229,2.441,2.441,0,0,0,1.164-.913,5.675,5.675,0,0,0,.822-1.918,13.146,13.146,0,0,0,.32-3.2Zm0-7.168h3.79V8.422h-3.79Z" transform="translate(-222.291 -3.035)"/>
      <path id="Path_7" data-name="Path 7" d="M388.787,36.7a9.568,9.568,0,0,1,1.05.776A7.305,7.305,0,0,1,391.3,39.21a12.088,12.088,0,0,1,1.278,2.9,14.658,14.658,0,0,1,.548,4.315V53.41h-3.79V46.424q0-1.141-.091-2.351a5.786,5.786,0,0,0-.639-2.26q-.092.914-.32,2.237a17.387,17.387,0,0,1-.731,2.762,17.673,17.673,0,0,1-1.3,2.854,10.127,10.127,0,0,1-2.032,2.534,9.968,9.968,0,0,1-2.968,1.826,10.718,10.718,0,0,1-4.064.708,11.973,11.973,0,0,1-4.475-.753,8.722,8.722,0,0,1-3.082-2.009,8.161,8.161,0,0,1-1.8-2.854,9.236,9.236,0,0,1-.593-3.242,10.164,10.164,0,0,1,.868-4.064,11.247,11.247,0,0,1,2.466-3.584,12.36,12.36,0,0,1,3.927-2.557,13.4,13.4,0,0,1,5.251-.982q1.461,0,2.762.114a18.17,18.17,0,0,1,2.489.388c0-.213-.008-.479-.023-.8s-.031-.639-.046-.959-.031-.6-.045-.845-.023-.4-.023-.456H367.327v-3.79H388.6q.045,1.964.091,3.607.045,1.462.069,2.831t.023,1.918m-11.6,14.246a7.492,7.492,0,0,0,3.219-.617,6.492,6.492,0,0,0,2.169-1.621,7.193,7.193,0,0,0,1.324-2.26,16.616,16.616,0,0,0,.708-2.58,17.176,17.176,0,0,0,.3-2.557q.045-1.232.091-2.192a12.889,12.889,0,0,0-2.283-.479,24.26,24.26,0,0,0-2.968-.16,14.645,14.645,0,0,0-2.762.3,8.4,8.4,0,0,0-2.854,1.119,6.835,6.835,0,0,0-2.215,2.26,6.98,6.98,0,0,0-.89,3.721A4.548,4.548,0,0,0,372.67,49.6a6.929,6.929,0,0,0,4.52,1.347" transform="translate(-258.382 -19.942)"/>
      <path id="Path_8" data-name="Path 8" d="M473.08,24.954a8.247,8.247,0,0,1,3.607.708,6.445,6.445,0,0,1,2.374,1.918,8.134,8.134,0,0,1,1.347,2.854,13.745,13.745,0,0,1,.434,3.516V51.026h-3.79V33.949a7.287,7.287,0,0,0-.867-3.721,3.292,3.292,0,0,0-3.105-1.484,7.347,7.347,0,0,0-3.7.936,9,9,0,0,0-2.785,2.466,11.785,11.785,0,0,0-1.758,3.424,12.27,12.27,0,0,0-.616,3.812V51.026h-3.79V26h3.79v5.525h.365a20.87,20.87,0,0,1,1.278-2.351,10.427,10.427,0,0,1,1.735-2.1,8.369,8.369,0,0,1,2.351-1.53,7.706,7.706,0,0,1,3.128-.594" transform="translate(-323.954 -17.557)"/>
      <path id="Path_9" data-name="Path 9" d="M133.72,185.272a1.108,1.108,0,0,1,.407-.712,10.292,10.292,0,0,1,1.068-.763,17.25,17.25,0,0,0,2.086-1.628,4.7,4.7,0,0,0,1.221-2.187l7.02-25.283a2.081,2.081,0,0,0-.1-1.6,5.6,5.6,0,0,0-1.221-1.3,5.944,5.944,0,0,1-.661-.661.953.953,0,0,1-.254-.61.7.7,0,0,1,.356-.534,1.5,1.5,0,0,1,.763-.178l1.526.051q1.679.153,3.714.152a3.316,3.316,0,0,1,1.857.407,1.977,1.977,0,0,1,.687,1.526l2.544,27.928h-.509l13.633-27.928a4.971,4.971,0,0,1,.763-1.018,3.062,3.062,0,0,1,1.043-.661,4.19,4.19,0,0,1,1.551-.255q1.271,0,4.171-.152l1.526-.051a.809.809,0,0,1,.585.178.6.6,0,0,1,.127.534.926.926,0,0,1-.382.687,10.917,10.917,0,0,1-.89.687,8.341,8.341,0,0,0-1.984,1.551,4.2,4.2,0,0,0-.967,2.315l-3.459,24.825a2.753,2.753,0,0,0,.305,1.883,6.308,6.308,0,0,0,1.323,1.424,4.4,4.4,0,0,1,.686.636.912.912,0,0,1,.229.585.61.61,0,0,1-.254.534,1.231,1.231,0,0,1-.712.178l-1.577-.051a30.662,30.662,0,0,0-3.154-.153q-.967,0-3.866.153l-1.424.051a.8.8,0,0,1-.611-.178.8.8,0,0,1-.153-.534.893.893,0,0,1,.331-.661,5.111,5.111,0,0,1,.839-.611,9.08,9.08,0,0,0,1.882-1.577,4.728,4.728,0,0,0,.966-2.391l3.408-24.52h.407l-14.905,30.268h-1.577a2.35,2.35,0,0,1-1.2-.28,1.757,1.757,0,0,1-.737-.941,6.651,6.651,0,0,1-.356-1.73l-2.544-27.47h.356l-7.071,25.741a1.915,1.915,0,0,0,.051,1.577,6.094,6.094,0,0,0,1.119,1.323,3.253,3.253,0,0,1,.687.687.559.559,0,0,1,.025.585.941.941,0,0,1-.356.534,1.231,1.231,0,0,1-.712.178l-1.424-.1q-1.018-.051-1.933-.1c-.441.033-.772.051-.992.051s-.552.017-.992.051q-.813.05-1.577.1-.763,0-.712-.56" transform="translate(-94.081 -105.408)"/>
      <path id="Path_10" data-name="Path 10" d="M278.691,207.82a4.487,4.487,0,0,1-.382-3.713l3.612-15.516a15.6,15.6,0,0,0,.534-3.23q-.026-.839-.585-.839-.509,0-1.5,1.018a16.309,16.309,0,0,0-2.111,2.849l-.712-.458a15.127,15.127,0,0,1,3.306-4.12,6.226,6.226,0,0,1,4.12-1.73,2.725,2.725,0,0,1,1.7.458,2.084,2.084,0,0,1,.661,1.577,12.3,12.3,0,0,1-.331,3.1L283.193,203.7a2.591,2.591,0,0,0-.025,1.73.9.9,0,0,0,.839.559q1.118,0,3.179-3.485a82.49,82.49,0,0,0,4.4-8.851,114.265,114.265,0,0,0,4.07-10.76h5.138L295.81,203.9q-.713,3.1.661,3.1a2.525,2.525,0,0,0,1.45-.992,16.434,16.434,0,0,0,1.958-3.027l.763.407a20.976,20.976,0,0,1-2.874,4.3,4.205,4.205,0,0,1-3.179,1.45,3.486,3.486,0,0,1-3.027-1.374q-.992-1.374-.331-4.324l2.595-11.344h-.356a71.346,71.346,0,0,1-6.232,12.743q-2.875,4.3-5.825,4.3a3.133,3.133,0,0,1-2.722-1.323" transform="translate(-195.278 -128.108)"/>
      <path id="Path_11" data-name="Path 11" d="M377.544,184.37a6.413,6.413,0,0,1-1.7-2.315,30.458,30.458,0,0,1-1.755-4.782l-2.035-6.97q-1.425,3.1-2.162,4.985a20.017,20.017,0,0,0-1.043,3.459l-1.17,5.443h-4.833l6.613-31.082a1.638,1.638,0,0,0-.331-1.73,3.612,3.612,0,0,0-2.366-.661,1.381,1.381,0,0,1-.763-.229.29.29,0,0,1-.026-.432,1.354,1.354,0,0,1,.788-.407q.355-.1,2.391-.661,1.882-.61,3.383-.967a5.359,5.359,0,0,1,2.162-.2.52.52,0,0,1,.458.331.749.749,0,0,1-.1.636l.051-.2-4.782,22.943a41.52,41.52,0,0,1,5.876-10.047q2.976-3.483,5.723-3.484a3.219,3.219,0,0,1,2.289.763,2.723,2.723,0,0,1,.814,2.086,2.306,2.306,0,0,1-.509,1.526,1.5,1.5,0,0,1-1.17.611,1.9,1.9,0,0,1-1.221-.331,3.881,3.881,0,0,1-.814-.992,4.186,4.186,0,0,0-.687-.788,1.336,1.336,0,0,0-.89-.28q-1.781,0-4.528,4.527l3.307,11.192a22.347,22.347,0,0,0,1.806,4.731q.737,1.171,1.5,1.17a2.363,2.363,0,0,0,1.475-.865,25.668,25.668,0,0,0,2.137-2.544l.61.356a26.58,26.58,0,0,1-3.383,4.426,4.316,4.316,0,0,1-3.027,1.425,3.426,3.426,0,0,1-2.086-.636" transform="translate(-255.291 -103.972)"/>
      <path id="Path_12" data-name="Path 12" d="M449.787,151.456a3.537,3.537,0,0,0-2.264-.636,1.379,1.379,0,0,1-.788-.255.3.3,0,0,1-.025-.458,1.506,1.506,0,0,1,.814-.407q1.118-.305,2.34-.661,1.984-.61,3.383-.941a5.819,5.819,0,0,1,2.009-.229.581.581,0,0,1,.483.331.681.681,0,0,1-.076.636l.1-.2-7.427,35.61h-4.833l6.613-31.082a1.586,1.586,0,0,0-.331-1.7m-1.043,23.986h1.679q2.339-6.1,4.069-9.742a24.35,24.35,0,0,1,3.536-5.672,5.054,5.054,0,0,1,3.688-2.035,2.611,2.611,0,0,1,2.544,1.246,5.328,5.328,0,0,1,.1,3.637l-4.019,16.94q-.713,3.1.611,3.1a2.515,2.515,0,0,0,1.5-.992,16.457,16.457,0,0,0,1.959-3.027l.763.407a20.272,20.272,0,0,1-2.9,4.3,4.284,4.284,0,0,1-3.2,1.45,3.432,3.432,0,0,1-2.976-1.374q-.992-1.374-.331-4.324l3.764-16.33q.458-1.933-.61-1.933-1.577,0-4.5,6.943t-6.079,16.2h-1.577Z" transform="translate(-312.044 -104.023)"/>
      <path id="Path_13" data-name="Path 13" d="M528.128,208.05a8.735,8.735,0,0,1-3.2-3.23,9.764,9.764,0,0,1-1.272-5.087,20.85,20.85,0,0,1,1.781-8.445,16.633,16.633,0,0,1,5.113-6.639,12.272,12.272,0,0,1,7.707-2.569,10.177,10.177,0,0,1,3.765.61,4.831,4.831,0,0,1,2.263,1.679,4.117,4.117,0,0,1,.738,2.391,6.834,6.834,0,0,1-2.925,5.367,23.682,23.682,0,0,1-6.969,3.815,34.438,34.438,0,0,1-7.4,1.857v-.967a21.636,21.636,0,0,0,5.825-1.628,14.8,14.8,0,0,0,5.036-3.459,7.374,7.374,0,0,0,2.06-5.24,3.654,3.654,0,0,0-.763-2.493,2.962,2.962,0,0,0-2.34-.865,6.635,6.635,0,0,0-4.833,2.086,13.411,13.411,0,0,0-3.179,5.469,23.073,23.073,0,0,0-1.094,7.147,8.764,8.764,0,0,0,1.933,5.977,6.206,6.206,0,0,0,4.883,2.213,5.9,5.9,0,0,0,3.892-1.424,12.316,12.316,0,0,0,2.773-3.256l.661.407a11.442,11.442,0,0,1-1.958,3.23,12.487,12.487,0,0,1-3.561,2.925,9.708,9.708,0,0,1-4.858,1.221,8.147,8.147,0,0,1-4.07-1.094" transform="translate(-368.434 -128.109)"/>
      <path id="Path_14" data-name="Path 14" d="M606.993,185.487q-.026-.864-.636-.865-.509,0-1.475,1.017a17.242,17.242,0,0,0-2.086,2.849l-.712-.356a14.8,14.8,0,0,1,3.23-4.273,5.994,5.994,0,0,1,4.044-1.781,2.251,2.251,0,0,1,2.264,1.119q.534,1.12-.076,4.019l-4.426,21.112h-4.782l4.171-19.636a16.173,16.173,0,0,0,.483-3.2m.534,14.091h1.679q2.391-6.41,4.044-9.92a23.342,23.342,0,0,1,3.434-5.52,5.149,5.149,0,0,1,3.866-2.009,3.423,3.423,0,0,1,2.365.839,2.766,2.766,0,0,1,.941,2.162,2.515,2.515,0,0,1-.585,1.73,1.912,1.912,0,0,1-1.5.661,1.724,1.724,0,0,1-1.2-.432,5.127,5.127,0,0,1-.941-1.2,7.5,7.5,0,0,0-.687-.839.936.936,0,0,0-.687-.28q-1.782,0-4.96,7.3t-6.18,15.948h-1.577Z" transform="translate(-423.618 -128.108)"/>
      <path id="Path_15" data-name="Path 15" d="M642.536,194.124a5.947,5.947,0,0,1-2.442-1.7,3.982,3.982,0,0,1-.941-2.646,2.616,2.616,0,0,1,.687-1.856,2.179,2.179,0,0,1,1.654-.738,1.632,1.632,0,0,1,1.246.458,2.8,2.8,0,0,1,.636,1.12,16.449,16.449,0,0,1,.407,1.73,10.178,10.178,0,0,0,.687,2.365,1.371,1.371,0,0,0,1.348.788,2.573,2.573,0,0,0,2.009-1.323,12.893,12.893,0,0,0,1.653-4.273l5.647-24.571a13.916,13.916,0,0,0,.585-3.18q-.026-.839-.636-.89-.509,0-1.5,1.018a16.308,16.308,0,0,0-2.111,2.849l-.712-.407a15.227,15.227,0,0,1,3.307-4.2,6.178,6.178,0,0,1,4.121-1.755,2.638,2.638,0,0,1,1.679.483,2.229,2.229,0,0,1,.712,1.628,10.188,10.188,0,0,1-.356,3.078l-5.545,24.011a12.956,12.956,0,0,1-3.1,6.461,7.974,7.974,0,0,1-5.9,2.137,8.546,8.546,0,0,1-3.129-.585m15.007-41.409a2.509,2.509,0,0,1-.814-1.272,3.609,3.609,0,0,1-.076-1.653,4.233,4.233,0,0,1,1.323-2.417,3.373,3.373,0,0,1,2.34-.992,2.2,2.2,0,0,1,1.4.458,2.373,2.373,0,0,1,.814,1.246,3.8,3.8,0,0,1,.076,1.7,4.331,4.331,0,0,1-1.323,2.391,3.33,3.33,0,0,1-2.34,1.018,2.121,2.121,0,0,1-1.4-.483" transform="translate(-449.7 -102.992)"/>
      <path id="Path_16" data-name="Path 16" d="M717.6,208.05a8.734,8.734,0,0,1-3.2-3.23,9.764,9.764,0,0,1-1.272-5.087,20.85,20.85,0,0,1,1.781-8.445,16.632,16.632,0,0,1,5.113-6.639,12.273,12.273,0,0,1,7.707-2.569,10.177,10.177,0,0,1,3.765.61,4.831,4.831,0,0,1,2.263,1.679,4.117,4.117,0,0,1,.738,2.391,6.834,6.834,0,0,1-2.925,5.367,23.681,23.681,0,0,1-6.969,3.815,34.438,34.438,0,0,1-7.4,1.857v-.967a21.637,21.637,0,0,0,5.825-1.628,14.8,14.8,0,0,0,5.036-3.459,7.374,7.374,0,0,0,2.06-5.24,3.654,3.654,0,0,0-.763-2.493,2.962,2.962,0,0,0-2.34-.865,6.635,6.635,0,0,0-4.833,2.086A13.412,13.412,0,0,0,719,190.7a23.075,23.075,0,0,0-1.094,7.147,8.764,8.764,0,0,0,1.933,5.977,6.206,6.206,0,0,0,4.883,2.213,5.9,5.9,0,0,0,3.892-1.424,12.315,12.315,0,0,0,2.773-3.256l.661.407a11.442,11.442,0,0,1-1.958,3.23,12.487,12.487,0,0,1-3.561,2.925,9.708,9.708,0,0,1-4.858,1.221,8.147,8.147,0,0,1-4.07-1.094" transform="translate(-501.743 -128.109)"/>
      <path id="Path_17" data-name="Path 17" d="M791.4,208.05a8.734,8.734,0,0,1-3.2-3.23,9.764,9.764,0,0,1-1.272-5.087,20.85,20.85,0,0,1,1.781-8.445,16.633,16.633,0,0,1,5.113-6.639,12.273,12.273,0,0,1,7.707-2.569,10.178,10.178,0,0,1,3.765.61,4.831,4.831,0,0,1,2.263,1.679,4.116,4.116,0,0,1,.738,2.391,6.834,6.834,0,0,1-2.925,5.367,23.681,23.681,0,0,1-6.969,3.815,34.437,34.437,0,0,1-7.4,1.857v-.967a21.638,21.638,0,0,0,5.825-1.628,14.8,14.8,0,0,0,5.036-3.459,7.374,7.374,0,0,0,2.06-5.24,3.654,3.654,0,0,0-.763-2.493,2.962,2.962,0,0,0-2.34-.865,6.635,6.635,0,0,0-4.833,2.086A13.412,13.412,0,0,0,792.8,190.7a23.073,23.073,0,0,0-1.094,7.147,8.764,8.764,0,0,0,1.933,5.977,6.206,6.206,0,0,0,4.883,2.213,5.9,5.9,0,0,0,3.892-1.424,12.315,12.315,0,0,0,2.773-3.256l.661.407a11.442,11.442,0,0,1-1.958,3.23,12.486,12.486,0,0,1-3.561,2.925,9.708,9.708,0,0,1-4.858,1.221,8.146,8.146,0,0,1-4.07-1.094" transform="translate(-553.667 -128.109)"/>
    </g>
  </g>
</svg>
