<svg xmlns="http://www.w3.org/2000/svg" width="82.509" height="82.509" viewBox="0 0 82.509 82.509">
  <g id="Group_29" data-name="Group 29" transform="translate(-4.689 -4.688)">
    <path id="Path_56" data-name="Path 56" d="M80.084,57.323h-.142a17.231,17.231,0,0,0-3.414-4.979,16.884,16.884,0,0,0-12.092-4.979H52.913a7.115,7.115,0,0,0-13.941,0H27.449a14,14,0,0,1-12.519-7.54,6.964,6.964,0,0,0,3.983-6.4,7.188,7.188,0,0,0-4.268-6.544,14.436,14.436,0,0,1,2.7-3.841,14.08,14.08,0,0,1,10.1-4.125H38.972a7.115,7.115,0,0,0,13.941,0h8.82a12.8,12.8,0,1,0,0-2.844h-8.82a7.115,7.115,0,0,0-13.941,0H27.45a16.883,16.883,0,0,0-12.092,4.979A18.1,18.1,0,0,0,11.8,26.311a7.113,7.113,0,1,0,0,14.226h.285A17.2,17.2,0,0,0,27.45,50.211H38.973a7.115,7.115,0,0,0,13.941,0H64.436a14.081,14.081,0,0,1,10.1,4.125A12.585,12.585,0,0,1,77.1,57.892a7.465,7.465,0,0,0-4.125,6.544,7.091,7.091,0,0,0,4.125,6.4,14.314,14.314,0,0,1-12.661,7.824H52.914a7.115,7.115,0,0,0-13.941,0h-20.2a7.155,7.155,0,0,0-6.971-5.69,7.113,7.113,0,1,0,0,14.226,7.155,7.155,0,0,0,6.971-5.69h20.2a7.115,7.115,0,0,0,13.941,0H64.437a17.112,17.112,0,0,0,15.506-9.958h.142a7.113,7.113,0,1,0,0-14.226Zm-5.69-49.79a9.958,9.958,0,1,1-9.958,9.958A9.9,9.9,0,0,1,74.393,7.532Zm-28.451,5.69a4.268,4.268,0,1,1-4.268,4.268A4.192,4.192,0,0,1,45.942,13.223ZM7.532,33.565A4.192,4.192,0,0,1,11.8,29.3a4.268,4.268,0,1,1,0,8.535A4.28,4.28,0,0,1,7.532,33.565Zm38.41,19.489a4.268,4.268,0,1,1,4.268-4.268A4.192,4.192,0,0,1,45.942,53.054ZM11.8,84.351a4.268,4.268,0,0,1,0-8.535,4.268,4.268,0,0,1,0,8.535Zm34.142,0a4.268,4.268,0,1,1,4.268-4.268A4.192,4.192,0,0,1,45.942,84.351ZM80.084,68.7a4.268,4.268,0,1,1,4.268-4.268A4.192,4.192,0,0,1,80.084,68.7Z" fill="#858585"/>
    <path id="Path_57" data-name="Path 57" d="M78.121,23.316a1.294,1.294,0,0,0,1.138.569,1.756,1.756,0,0,0,1.138-.569l5.69-8.535a1.44,1.44,0,0,0-2.418-1.565L79.259,19.9l-1.707-2.561a1.44,1.44,0,1,0-2.418,1.565Z" transform="translate(-6.287 -0.704)" fill="#ff2a2a"/>
  </g>
</svg>
