<svg xmlns="http://www.w3.org/2000/svg" width="101.365" height="82.209" viewBox="0 0 101.365 82.209">
  <g id="noun-phase-5894512" transform="translate(-0.4 -11.4)">
    <path id="Subtraction_1" data-name="Subtraction 1" d="M-950.434-3895.524H-955.3a5.234,5.234,0,0,1-5.192-4.626l-.03-.251-.239-.082a24.583,24.583,0,0,1-3.052-1.268l-.228-.113-.2.158a5.243,5.243,0,0,1-3.248,1.133,5.2,5.2,0,0,1-3.7-1.53l-3.44-3.441a5.234,5.234,0,0,1-.4-6.944l.158-.2-.113-.227a24.726,24.726,0,0,1-1.268-3.052l-.081-.239-.251-.03a5.234,5.234,0,0,1-4.626-5.191v-4.865a5.234,5.234,0,0,1,4.626-5.191l.251-.029.081-.24a24.616,24.616,0,0,1,1.268-3.052l.113-.227-.158-.2a5.235,5.235,0,0,1,.4-6.945l3.44-3.439a5.193,5.193,0,0,1,3.7-1.531,5.25,5.25,0,0,1,3.248,1.133l.2.158.228-.113a24.716,24.716,0,0,1,3.052-1.267l.239-.081.03-.251a5.235,5.235,0,0,1,5.191-4.627h4.865a5.237,5.237,0,0,1,5.191,4.627l.029.251.24.081a24.779,24.779,0,0,1,3.052,1.267l.227.113.2-.158a5.245,5.245,0,0,1,3.247-1.133,5.2,5.2,0,0,1,3.7,1.531l3.439,3.439a5.235,5.235,0,0,1,.4,6.945l-.157.2.112.228a24.6,24.6,0,0,1,1.268,3.052l.081.24.251.029a5.234,5.234,0,0,1,4.626,5.191v4.864a5.234,5.234,0,0,1-4.626,5.192l-.251.03-.081.239a24.719,24.719,0,0,1-1.267,3.052l-.113.228.158.2a5.234,5.234,0,0,1-.4,6.944l-3.439,3.441a5.2,5.2,0,0,1-3.7,1.53,5.243,5.243,0,0,1-3.248-1.133l-.2-.158-.227.113a24.583,24.583,0,0,1-3.052,1.268l-.24.082-.029.251A5.235,5.235,0,0,1-950.434-3895.524Zm-13.689-8.837a1.922,1.922,0,0,1,.893.221,22.181,22.181,0,0,0,3.754,1.559,1.907,1.907,0,0,1,1.344,1.832,2.814,2.814,0,0,0,.829,2,2.817,2.817,0,0,0,2,.829h4.865a2.814,2.814,0,0,0,2-.829,2.816,2.816,0,0,0,.829-2,1.905,1.905,0,0,1,1.343-1.83,22.222,22.222,0,0,0,3.755-1.56,1.921,1.921,0,0,1,.893-.221,1.9,1.9,0,0,1,1.358.563,2.816,2.816,0,0,0,2.006.833,2.814,2.814,0,0,0,2-.829l3.44-3.439a2.817,2.817,0,0,0,.829-2,2.813,2.813,0,0,0-.829-2l0,0a1.907,1.907,0,0,1-.342-2.25,22.189,22.189,0,0,0,1.56-3.754,1.909,1.909,0,0,1,1.832-1.344,2.836,2.836,0,0,0,2.832-2.833v-4.865a2.811,2.811,0,0,0-.83-2,2.817,2.817,0,0,0-2.006-.829,1.907,1.907,0,0,1-1.828-1.344,22.172,22.172,0,0,0-1.56-3.754,1.908,1.908,0,0,1,.342-2.251,2.838,2.838,0,0,0,0-4.009l-3.44-3.44a2.814,2.814,0,0,0-2-.829,2.813,2.813,0,0,0-2,.829l0,0a1.9,1.9,0,0,1-1.358.563,1.918,1.918,0,0,1-.893-.221,22.088,22.088,0,0,0-3.754-1.56,1.909,1.909,0,0,1-1.344-1.832,2.812,2.812,0,0,0-.829-2,2.811,2.811,0,0,0-2-.83H-955.3a2.836,2.836,0,0,0-2.832,2.833,1.906,1.906,0,0,1-1.343,1.831,22.11,22.11,0,0,0-3.755,1.56,1.913,1.913,0,0,1-.893.221,1.9,1.9,0,0,1-1.356-.562l-.005-.006a2.814,2.814,0,0,0-2-.829,2.814,2.814,0,0,0-2,.829l-3.439,3.44a2.837,2.837,0,0,0,0,4.006,1.908,1.908,0,0,1,.345,2.253,22.193,22.193,0,0,0-1.559,3.755,1.912,1.912,0,0,1-1.832,1.344,2.836,2.836,0,0,0-2.832,2.832v4.865a2.838,2.838,0,0,0,2.836,2.833,1.906,1.906,0,0,1,1.827,1.343,22.241,22.241,0,0,0,1.559,3.755,1.9,1.9,0,0,1-.342,2.25l0,0a2.813,2.813,0,0,0-.829,2,2.814,2.814,0,0,0,.829,2l3.439,3.439a2.814,2.814,0,0,0,2,.829,2.814,2.814,0,0,0,2-.829l0,0A1.9,1.9,0,0,1-964.122-3904.361Z" transform="translate(1003.948 3963.591)" fill="#858585"/>
    <path id="Subtraction_2" data-name="Subtraction 2" d="M-968.191-3926.173a13.024,13.024,0,0,1-13.009-13.009,13.024,13.024,0,0,1,13.009-13.009,13.044,13.044,0,0,1,13.009,13.009A13.024,13.024,0,0,1-968.191-3926.173Zm0-23.626a10.629,10.629,0,0,0-10.616,10.617,10.628,10.628,0,0,0,10.616,10.616,10.628,10.628,0,0,0,10.616-10.616A10.629,10.629,0,0,0-968.191-3949.8Z" transform="translate(1019.273 3978.916)" fill="#858585"/>
    <circle id="Ellipse_16" data-name="Ellipse 16" cx="2.5" cy="2.5" r="2.5" transform="translate(13 81.009)" fill="#ff2a2a"/>
    <circle id="Ellipse_17" data-name="Ellipse 17" cx="2.5" cy="2.5" r="2.5" transform="translate(37 81.009)" fill="#ff2a2a"/>
    <path id="Subtraction_3" data-name="Subtraction 3" d="M-894.6-3932.239a9.91,9.91,0,0,1-9.845-8.44l-.053-.339h-4.15l-.053.339a9.91,9.91,0,0,1-9.845,8.44,9.909,9.909,0,0,1-9.844-8.44l-.053-.339h-4.15l-.053.339a9.91,9.91,0,0,1-9.845,8.44,9.908,9.908,0,0,1-9.844-8.44l-.053-.339h-4.151l-.052.339a9.91,9.91,0,0,1-9.845,8.44,9.91,9.91,0,0,1-9.845-8.44l-.052-.339H-980a1.2,1.2,0,0,1-1.2-1.2,1.2,1.2,0,0,1,1.2-1.2h3.672l.052-.339a9.91,9.91,0,0,1,9.845-8.439,9.909,9.909,0,0,1,9.845,8.439l.052.339h4.151l.053-.339a9.907,9.907,0,0,1,9.844-8.439,9.91,9.91,0,0,1,9.845,8.439l.053.339h4.15l.053-.339a9.91,9.91,0,0,1,9.845-8.439,9.909,9.909,0,0,1,9.844,8.439l.053.339h4.15l.053-.339a9.909,9.909,0,0,1,9.845-8.439,9.907,9.907,0,0,1,9.844,8.439l.053.339h3.672a1.2,1.2,0,0,1,1.2,1.2,1.2,1.2,0,0,1-1.2,1.2H-884.7l-.053.339A9.909,9.909,0,0,1-894.6-3932.239Zm0-17.56a7.592,7.592,0,0,0-7.583,7.583,7.592,7.592,0,0,0,7.583,7.583,7.54,7.54,0,0,0,5.359-2.223,7.546,7.546,0,0,0,2.224-5.36A7.592,7.592,0,0,0-894.6-3949.8Zm-23.946,0a7.592,7.592,0,0,0-7.583,7.583,7.592,7.592,0,0,0,7.583,7.583,7.541,7.541,0,0,0,5.36-2.223,7.547,7.547,0,0,0,2.224-5.36A7.592,7.592,0,0,0-918.546-3949.8Zm-23.945,0a7.592,7.592,0,0,0-7.583,7.583,7.592,7.592,0,0,0,7.583,7.583,7.542,7.542,0,0,0,5.36-2.223,7.541,7.541,0,0,0,2.223-5.36A7.592,7.592,0,0,0-942.49-3949.8Zm-23.945,0a7.592,7.592,0,0,0-7.583,7.583,7.592,7.592,0,0,0,7.583,7.583,7.6,7.6,0,0,0,7.583-7.583A7.592,7.592,0,0,0-966.435-3949.8Z" transform="translate(981.6 4025.848)" fill="#858585"/>
  </g>
</svg>
