<svg xmlns="http://www.w3.org/2000/svg" width="83.468" height="83.508" viewBox="0 0 83.468 83.508">
  <g id="Group_30" data-name="Group 30" transform="translate(-1370.75 -3963.741)">
    <g id="noun-organization-6880753" transform="translate(1364.938 3957.952)">
      <path id="Path_61" data-name="Path 61" d="M76.044,76.32a.921.921,0,1,1,1.578-.948l1.07,1.792,3.268-4.19A.917.917,0,0,1,83.406,74.1l-4.072,5.222A.92.92,0,0,1,77.8,79.26Zm0-28.738a.92.92,0,1,1,1.578-.944l1.07,1.792,3.268-4.19a.917.917,0,1,1,1.446,1.129l-4.072,5.215a.918.918,0,0,1-1.534-.063Zm-.3-28.735a.919.919,0,0,1,1.575-.948l1.077,1.8,3.268-4.19a.919.919,0,0,1,1.446,1.136l-4.072,5.215A.921.921,0,0,1,77.5,21.8Z" fill="#ff2a2a"/>
    </g>
    <g id="noun-organization-6880753-2" data-name="noun-organization-6880753" transform="translate(1364.938 3957.952)">
      <path id="Path_61-2" data-name="Path 61" d="M9.142,46.837c.015-8.173,6.307-12.853,13.439-14.236-2.987-1.9-5.429-5.746-6.336-11.522-2.058-13.126,9.6-17.862,16.9-13.344,3.507,2.169,5.93,6.425,5.119,12.75C37.5,26.438,35.017,30.58,31.816,32.6c7.14,1.376,13.447,6.063,13.458,14.24a3.791,3.791,0,0,1,3.083,3.714V74.089a3.786,3.786,0,0,1-3.777,3.777l-34.738,0a3.786,3.786,0,0,1-3.777-3.777l0-23.538a3.8,3.8,0,0,1,3.08-3.718Zm56.9,27.506a.922.922,0,0,1,0-1.844h5.348a.922.922,0,0,1,0,1.844Zm0,5.717a.92.92,0,0,1,0-1.84h5.348a.92.92,0,0,1,0,1.84Zm0-34.454a.92.92,0,0,1,0-1.84h5.348a.92.92,0,0,1,0,1.84Zm0,5.717a.922.922,0,0,1,0-1.844h5.348a.922.922,0,0,1,0,1.844Zm-.3-34.451a.922.922,0,0,1,0-1.844h5.348a.922.922,0,0,1,0,1.844Zm0,5.72a.922.922,0,0,1,0-1.844h5.348a.922.922,0,0,1,0,1.844ZM56.19,17.886a.922.922,0,0,1,0,1.844H53.7V74.992H56.19a.922.922,0,0,1,0,1.844l-3.408,0a.923.923,0,0,1-.926-.922V18.811a.924.924,0,0,1,.926-.926ZM64.4,63.507H84.32a4.721,4.721,0,0,1,4.71,4.71V84.338a4.721,4.721,0,0,1-4.71,4.71H64.4a4.72,4.72,0,0,1-4.706-4.71V68.217A4.724,4.724,0,0,1,64.4,63.507ZM84.32,65.355H64.4a2.874,2.874,0,0,0-2.862,2.862V84.338A2.874,2.874,0,0,0,64.4,87.2H84.32a2.874,2.874,0,0,0,2.862-2.862V68.217A2.869,2.869,0,0,0,84.32,65.355ZM64.4,6.039H84.32a4.721,4.721,0,0,1,4.71,4.71V26.87a4.721,4.721,0,0,1-4.71,4.71H64.4A4.72,4.72,0,0,1,59.7,26.87l0-16.117a4.72,4.72,0,0,1,4.7-4.713ZM84.32,7.887H64.4a2.869,2.869,0,0,0-2.862,2.862V26.869A2.874,2.874,0,0,0,64.4,29.731H84.32a2.874,2.874,0,0,0,2.862-2.862l0-16.117A2.873,2.873,0,0,0,84.32,7.887ZM64.4,34.777H84.32a4.721,4.721,0,0,1,4.71,4.71V55.607a4.721,4.721,0,0,1-4.71,4.71H64.4a4.72,4.72,0,0,1-4.706-4.71V39.486a4.724,4.724,0,0,1,4.706-4.71ZM84.32,36.621H64.4a2.874,2.874,0,0,0-2.862,2.862V55.6A2.874,2.874,0,0,0,64.4,58.465H84.32A2.874,2.874,0,0,0,87.182,55.6V39.483A2.869,2.869,0,0,0,84.32,36.621ZM27.21,57.355a4.969,4.969,0,1,1-4.972,4.972,4.973,4.973,0,0,1,4.972-4.972Zm2.213,2.759a3.126,3.126,0,1,0,0,4.418A3.129,3.129,0,0,0,29.423,60.114ZM43.438,46.778c-.063-8.785-8.527-12.768-16.228-12.768S11.048,37.993,10.981,46.778Zm1.143,1.844H9.843A1.948,1.948,0,0,0,7.9,50.554V74.092a1.95,1.95,0,0,0,1.94,1.94H44.585a1.946,1.946,0,0,0,1.933-1.94V50.554a1.942,1.942,0,0,0-1.936-1.933ZM21.995,9.465c-2.9,1.929-4.82,5.7-3.935,11.337.808,5.163,2.9,8.534,5.407,10.179a6.6,6.6,0,0,0,7.693-.148c2.541-1.77,4.61-5.311,5.285-10.577C37.868,9.041,27.907,5.533,21.995,9.464Z" fill="#858585"/>
      <path id="Path_61_-_Outline" data-name="Path 61 - Outline" d="M84.32,89.3H64.4a4.964,4.964,0,0,1-4.956-4.96V68.217a4.968,4.968,0,0,1,4.956-4.96H84.32a4.965,4.965,0,0,1,4.96,4.96V84.338A4.965,4.965,0,0,1,84.32,89.3ZM64.4,63.757a4.468,4.468,0,0,0-4.456,4.46v16.12A4.463,4.463,0,0,0,64.4,88.8H84.32a4.465,4.465,0,0,0,4.46-4.46V68.217a4.465,4.465,0,0,0-4.46-4.46ZM84.32,87.45H64.4a3.115,3.115,0,0,1-3.112-3.112V68.217A3.115,3.115,0,0,1,64.4,65.105H84.32a3.119,3.119,0,0,1,3.112,3.113v16.12A3.115,3.115,0,0,1,84.32,87.45ZM64.4,65.605a2.615,2.615,0,0,0-2.612,2.612V84.338A2.615,2.615,0,0,0,64.4,86.95H84.32a2.615,2.615,0,0,0,2.612-2.612V68.217a2.619,2.619,0,0,0-2.612-2.612ZM71.386,80.31H66.038a1.17,1.17,0,0,1,0-2.34h5.348a1.129,1.129,0,0,1,1.16,1.17,1.2,1.2,0,0,1-.29.8A1.115,1.115,0,0,1,71.386,80.31Zm-5.348-1.84a.67.67,0,0,0,0,1.34h5.348a.627.627,0,0,0,.495-.2.714.714,0,0,0,.165-.468.631.631,0,0,0-.66-.67Zm-56.2-.35h0a4.031,4.031,0,0,1-4.027-4.027l0-23.538a4.047,4.047,0,0,1,3.082-3.919,13.844,13.844,0,0,1,1.122-5.376,13.249,13.249,0,0,1,3-4.267,18.55,18.55,0,0,1,8.931-4.516C18.914,30.29,16.81,26.286,16,21.118c-.917-5.849.912-9.439,2.607-11.421a11.27,11.27,0,0,1,8.6-3.878,11.511,11.511,0,0,1,6.066,1.7,11,11,0,0,1,4.276,4.928,14.989,14.989,0,0,1,.959,8.067,21.391,21.391,0,0,1-2.337,7.62,12.8,12.8,0,0,1-3.724,4.335,18.547,18.547,0,0,1,8.941,4.514,13.253,13.253,0,0,1,3.008,4.27,13.829,13.829,0,0,1,1.123,5.379,4.033,4.033,0,0,1,3.085,3.916V74.089a4.031,4.031,0,0,1-4.027,4.027ZM9.166,47.087a3.547,3.547,0,0,0-2.854,3.468l0,23.538a3.531,3.531,0,0,0,3.527,3.527l34.738,0a3.531,3.531,0,0,0,3.527-3.527V50.551a3.532,3.532,0,0,0-2.879-3.468l-.2-.038v-.207c-.012-8.438-6.855-12.762-13.255-13.995l-.621-.12.535-.337c3.373-2.126,5.621-6.363,6.332-11.932.711-5.542-1.113-10.1-5-12.506a11.012,11.012,0,0,0-5.8-1.63,10.77,10.77,0,0,0-8.224,3.7c-1.627,1.9-3.381,5.358-2.493,11.019.833,5.3,3.043,9.331,6.223,11.349l.531.337-.617.12C16.24,34.086,9.407,38.412,9.392,46.838v.25Zm43.617,30h0a1.175,1.175,0,0,1-1.176-1.172V18.811a1.177,1.177,0,0,1,1.176-1.176H56.19a1.172,1.172,0,0,1,0,2.344H53.955V74.742H56.19a1.131,1.131,0,0,1,1.163,1.172,1.2,1.2,0,0,1-.291.8,1.118,1.118,0,0,1-.872.373ZM56.19,18.136H52.783a.676.676,0,0,0-.676.676V75.918a.675.675,0,0,0,.676.672l3.408,0a.63.63,0,0,0,.5-.2.715.715,0,0,0,.166-.469.633.633,0,0,0-.663-.672H53.455V19.48H56.19a.672.672,0,0,0,0-1.344ZM44.585,76.282H9.843a2.192,2.192,0,0,1-2.19-2.19V50.554a2.189,2.189,0,0,1,2.19-2.183H44.581a2.187,2.187,0,0,1,2.186,2.183V74.092A2.189,2.189,0,0,1,44.585,76.282ZM9.843,48.872a1.688,1.688,0,0,0-1.69,1.683V74.092a1.692,1.692,0,0,0,1.69,1.69H44.585a1.688,1.688,0,0,0,1.683-1.69V50.554a1.686,1.686,0,0,0-1.686-1.683ZM71.386,74.594H66.038a1.172,1.172,0,0,1,0-2.344h5.348a1.172,1.172,0,0,1,0,2.344Zm-5.348-1.844a.672.672,0,0,0,0,1.344h5.348a.672.672,0,0,0,0-1.344Zm-38.785-5.2a5.4,5.4,0,0,1-3.637-1.431,5.111,5.111,0,0,1-1.629-3.788,5.227,5.227,0,0,1,5.222-5.222,5.221,5.221,0,0,1,.044,10.441Zm-.044-9.941a4.721,4.721,0,1,0,.044,9.441,4.574,4.574,0,0,0,3.291-1.385,4.723,4.723,0,0,0-3.334-8.056Zm.029,8.1a3.486,3.486,0,0,1-2.35-.925,3.381,3.381,0,0,1,0-4.9,3.484,3.484,0,0,1,2.35-.927,3.323,3.323,0,0,1,2.36.992,3.382,3.382,0,0,1,0,4.772A3.324,3.324,0,0,1,27.239,65.7Zm0-6.256a2.878,2.878,0,1,0,0,5.756,2.788,2.788,0,0,0,2.007-.846,2.881,2.881,0,0,0,0-4.065A2.786,2.786,0,0,0,27.24,59.445Zm57.08,1.121H64.4a4.964,4.964,0,0,1-4.956-4.96V39.486a4.968,4.968,0,0,1,4.956-4.96H84.32a4.965,4.965,0,0,1,4.96,4.96V55.607A4.965,4.965,0,0,1,84.32,60.567ZM64.4,35.027a4.468,4.468,0,0,0-4.456,4.46v16.12a4.463,4.463,0,0,0,4.456,4.46H84.32a4.465,4.465,0,0,0,4.46-4.46V39.486a4.465,4.465,0,0,0-4.46-4.46ZM84.32,58.715H64.4A3.115,3.115,0,0,1,61.292,55.6V39.483A3.115,3.115,0,0,1,64.4,36.371H84.32a3.119,3.119,0,0,1,3.112,3.113V55.6A3.115,3.115,0,0,1,84.32,58.715ZM64.4,36.871a2.615,2.615,0,0,0-2.612,2.612V55.6A2.615,2.615,0,0,0,64.4,58.215H84.32A2.615,2.615,0,0,0,86.932,55.6V39.483a2.619,2.619,0,0,0-2.612-2.612Zm6.982,14.7H66.038a1.172,1.172,0,0,1,0-2.344h5.348a1.172,1.172,0,0,1,0,2.344Zm-5.348-1.844a.672.672,0,0,0,0,1.344h5.348a.672.672,0,0,0,0-1.344Zm-22.349-2.7H10.729l0-.252a11.636,11.636,0,0,1,5.355-9.883,17.559,17.559,0,0,1,5.276-2.364,22.609,22.609,0,0,1,11.688,0,17.584,17.584,0,0,1,5.278,2.364,11.628,11.628,0,0,1,5.359,9.883Zm-32.454-.5H43.184c-.22-8.426-8.4-12.268-15.974-12.268S11.459,38.1,11.236,46.528Zm60.15-.672H66.038a1.17,1.17,0,0,1,0-2.34h5.348a1.17,1.17,0,0,1,0,2.34Zm-5.348-1.84a.67.67,0,0,0,0,1.34h5.348a.67.67,0,0,0,0-1.34ZM27.2,32.4h0a6.977,6.977,0,0,1-3.869-1.205c-2.8-1.834-4.76-5.509-5.517-10.349a13.828,13.828,0,0,1,.563-7.188,9.27,9.27,0,0,1,3.2-4.2l-.005,0,.283-.189a9.644,9.644,0,0,1,5.363-1.6,9.431,9.431,0,0,1,7.1,3.132c1.427,1.62,3,4.582,2.375,9.494-.635,4.954-2.549,8.772-5.39,10.751A7.17,7.17,0,0,1,27.2,32.4ZM22.189,9.635l-.056.037c-3.2,2.132-4.6,6.174-3.827,11.091.735,4.7,2.616,8.253,5.3,10.009A6.485,6.485,0,0,0,27.2,31.9a6.674,6.674,0,0,0,3.818-1.267c2.724-1.9,4.564-5.593,5.18-10.4.475-3.741-.3-6.888-2.254-9.1a8.931,8.931,0,0,0-6.724-2.963A9.15,9.15,0,0,0,22.189,9.635ZM84.32,31.829H64.4a4.964,4.964,0,0,1-4.956-4.96l0-16.117A4.965,4.965,0,0,1,64.125,5.8V5.789h20.2a4.965,4.965,0,0,1,4.96,4.96V26.87A4.965,4.965,0,0,1,84.32,31.829ZM64.683,6.289H64.4a4.463,4.463,0,0,0-4.452,4.463l0,16.117a4.463,4.463,0,0,0,4.456,4.46H84.32a4.465,4.465,0,0,0,4.46-4.46V10.749a4.465,4.465,0,0,0-4.46-4.46ZM84.32,29.981H64.4a3.115,3.115,0,0,1-3.112-3.112V10.749A3.115,3.115,0,0,1,64.4,7.637H84.32a3.119,3.119,0,0,1,3.116,3.116l0,16.117A3.115,3.115,0,0,1,84.32,29.981ZM64.4,8.137a2.615,2.615,0,0,0-2.612,2.612V26.869A2.615,2.615,0,0,0,64.4,29.481H84.32a2.615,2.615,0,0,0,2.612-2.612l0-16.117A2.619,2.619,0,0,0,84.32,8.137Zm6.679,14.7H65.735a1.172,1.172,0,0,1,0-2.344h5.348a1.172,1.172,0,0,1,0,2.344ZM65.735,21a.672.672,0,0,0,0,1.344h5.348a.672.672,0,0,0,0-1.344Zm5.348-3.876H65.735a1.172,1.172,0,0,1,0-2.344h5.348a1.172,1.172,0,0,1,0,2.344Zm-5.348-1.844a.672.672,0,0,0,0,1.344h5.348a.672.672,0,0,0,0-1.344Z" fill="#858585"/>
    </g>
  </g>
</svg>
